<?xml version="1.0" encoding="utf-8" standalone="no"?>
<!DOCTYPE svg PUBLIC "-//W3C//DTD SVG 1.1//EN"
  "http://www.w3.org/Graphics/SVG/1.1/DTD/svg11.dtd">
<svg xmlns:xlink="http://www.w3.org/1999/xlink" width="720pt" height="432pt" viewBox="0 0 720 432" xmlns="http://www.w3.org/2000/svg" version="1.1">
 <metadata>
  <rdf:RDF xmlns:dc="http://purl.org/dc/elements/1.1/" xmlns:cc="http://creativecommons.org/ns#" xmlns:rdf="http://www.w3.org/1999/02/22-rdf-syntax-ns#">
   <cc:Work>
    <dc:type rdf:resource="http://purl.org/dc/dcmitype/StillImage"/>
    <dc:date>2025-01-28T18:26:16.985552</dc:date>
    <dc:format>image/svg+xml</dc:format>
    <dc:creator>
     <cc:Agent>
      <dc:title>Matplotlib v3.8.2, https://matplotlib.org/</dc:title>
     </cc:Agent>
    </dc:creator>
   </cc:Work>
  </rdf:RDF>
 </metadata>
 <defs>
  <style type="text/css">*{stroke-linejoin: round; stroke-linecap: butt}</style>
 </defs>
 <g id="figure_1">
  <g id="patch_1">
   <path d="M 0 432 
L 720 432 
L 720 0 
L 0 0 
z
" style="fill: #ffffff"/>
  </g>
  <g id="axes_1">
   <g id="patch_2">
    <path d="M 90 384.48 
L 648 384.48 
L 648 51.84 
L 90 51.84 
z
" style="fill: #ffffff"/>
   </g>
   <g id="matplotlib.axis_1">
    <g id="xtick_1">
     <g id="line2d_1">
      <path d="M 145.8 384.48 
L 145.8 51.84 
" clip-path="url(#p64b22d7a7c)" style="fill: none; stroke: #b0b0b0; stroke-width: 0.8; stroke-linecap: square"/>
     </g>
     <g id="line2d_2">
      <defs>
       <path id="m037e03fc72" d="M 0 0 
L 0 3.5 
" style="stroke: #000000; stroke-width: 0.8"/>
      </defs>
      <g>
       <use xlink:href="#m037e03fc72" x="145.8" y="384.48" style="stroke: #000000; stroke-width: 0.8"/>
      </g>
     </g>
     <g id="text_1">
      <!-- −4 -->
      <g transform="translate(138.428906 399.078438) scale(0.1 -0.1)">
       <defs>
        <path id="DejaVuSans-2212" d="M 678 2272 
L 4684 2272 
L 4684 1741 
L 678 1741 
L 678 2272 
z
" transform="scale(0.015625)"/>
        <path id="DejaVuSans-34" d="M 2419 4116 
L 825 1625 
L 2419 1625 
L 2419 4116 
z
M 2253 4666 
L 3047 4666 
L 3047 1625 
L 3713 1625 
L 3713 1100 
L 3047 1100 
L 3047 0 
L 2419 0 
L 2419 1100 
L 313 1100 
L 313 1709 
L 2253 4666 
z
" transform="scale(0.015625)"/>
       </defs>
       <use xlink:href="#DejaVuSans-2212"/>
       <use xlink:href="#DejaVuSans-34" x="83.789062"/>
      </g>
     </g>
    </g>
    <g id="xtick_2">
     <g id="line2d_3">
      <path d="M 257.4 384.48 
L 257.4 51.84 
" clip-path="url(#p64b22d7a7c)" style="fill: none; stroke: #b0b0b0; stroke-width: 0.8; stroke-linecap: square"/>
     </g>
     <g id="line2d_4">
      <g>
       <use xlink:href="#m037e03fc72" x="257.4" y="384.48" style="stroke: #000000; stroke-width: 0.8"/>
      </g>
     </g>
     <g id="text_2">
      <!-- −2 -->
      <g transform="translate(250.028906 399.078438) scale(0.1 -0.1)">
       <defs>
        <path id="DejaVuSans-32" d="M 1228 531 
L 3431 531 
L 3431 0 
L 469 0 
L 469 531 
Q 828 903 1448 1529 
Q 2069 2156 2228 2338 
Q 2531 2678 2651 2914 
Q 2772 3150 2772 3378 
Q 2772 3750 2511 3984 
Q 2250 4219 1831 4219 
Q 1534 4219 1204 4116 
Q 875 4013 500 3803 
L 500 4441 
Q 881 4594 1212 4672 
Q 1544 4750 1819 4750 
Q 2544 4750 2975 4387 
Q 3406 4025 3406 3419 
Q 3406 3131 3298 2873 
Q 3191 2616 2906 2266 
Q 2828 2175 2409 1742 
Q 1991 1309 1228 531 
z
" transform="scale(0.015625)"/>
       </defs>
       <use xlink:href="#DejaVuSans-2212"/>
       <use xlink:href="#DejaVuSans-32" x="83.789062"/>
      </g>
     </g>
    </g>
    <g id="xtick_3">
     <g id="line2d_5">
      <path d="M 369 384.48 
L 369 51.84 
" clip-path="url(#p64b22d7a7c)" style="fill: none; stroke: #b0b0b0; stroke-width: 0.8; stroke-linecap: square"/>
     </g>
     <g id="line2d_6">
      <g>
       <use xlink:href="#m037e03fc72" x="369" y="384.48" style="stroke: #000000; stroke-width: 0.8"/>
      </g>
     </g>
     <g id="text_3">
      <!-- 0 -->
      <g transform="translate(365.81875 399.078438) scale(0.1 -0.1)">
       <defs>
        <path id="DejaVuSans-30" d="M 2034 4250 
Q 1547 4250 1301 3770 
Q 1056 3291 1056 2328 
Q 1056 1369 1301 889 
Q 1547 409 2034 409 
Q 2525 409 2770 889 
Q 3016 1369 3016 2328 
Q 3016 3291 2770 3770 
Q 2525 4250 2034 4250 
z
M 2034 4750 
Q 2819 4750 3233 4129 
Q 3647 3509 3647 2328 
Q 3647 1150 3233 529 
Q 2819 -91 2034 -91 
Q 1250 -91 836 529 
Q 422 1150 422 2328 
Q 422 3509 836 4129 
Q 1250 4750 2034 4750 
z
" transform="scale(0.015625)"/>
       </defs>
       <use xlink:href="#DejaVuSans-30"/>
      </g>
     </g>
    </g>
    <g id="xtick_4">
     <g id="line2d_7">
      <path d="M 480.6 384.48 
L 480.6 51.84 
" clip-path="url(#p64b22d7a7c)" style="fill: none; stroke: #b0b0b0; stroke-width: 0.8; stroke-linecap: square"/>
     </g>
     <g id="line2d_8">
      <g>
       <use xlink:href="#m037e03fc72" x="480.6" y="384.48" style="stroke: #000000; stroke-width: 0.8"/>
      </g>
     </g>
     <g id="text_4">
      <!-- 2 -->
      <g transform="translate(477.41875 399.078438) scale(0.1 -0.1)">
       <use xlink:href="#DejaVuSans-32"/>
      </g>
     </g>
    </g>
    <g id="xtick_5">
     <g id="line2d_9">
      <path d="M 592.2 384.48 
L 592.2 51.84 
" clip-path="url(#p64b22d7a7c)" style="fill: none; stroke: #b0b0b0; stroke-width: 0.8; stroke-linecap: square"/>
     </g>
     <g id="line2d_10">
      <g>
       <use xlink:href="#m037e03fc72" x="592.2" y="384.48" style="stroke: #000000; stroke-width: 0.8"/>
      </g>
     </g>
     <g id="text_5">
      <!-- 4 -->
      <g transform="translate(589.01875 399.078438) scale(0.1 -0.1)">
       <use xlink:href="#DejaVuSans-34"/>
      </g>
     </g>
    </g>
    <g id="text_6">
     <!-- $x$ -->
     <g transform="translate(366 412.756563) scale(0.1 -0.1)">
      <defs>
       <path id="DejaVuSans-Oblique-78" d="M 3841 3500 
L 2234 1784 
L 3219 0 
L 2559 0 
L 1819 1388 
L 531 0 
L -166 0 
L 1556 1844 
L 641 3500 
L 1300 3500 
L 1972 2234 
L 3144 3500 
L 3841 3500 
z
" transform="scale(0.015625)"/>
      </defs>
      <use xlink:href="#DejaVuSans-Oblique-78" transform="translate(0 0.3125)"/>
     </g>
    </g>
   </g>
   <g id="matplotlib.axis_2">
    <g id="ytick_1">
     <g id="line2d_11">
      <path d="M 90 384.48 
L 648 384.48 
" clip-path="url(#p64b22d7a7c)" style="fill: none; stroke: #b0b0b0; stroke-width: 0.8; stroke-linecap: square"/>
     </g>
     <g id="line2d_12">
      <defs>
       <path id="m330558c901" d="M 0 0 
L -3.5 0 
" style="stroke: #000000; stroke-width: 0.8"/>
      </defs>
      <g>
       <use xlink:href="#m330558c901" x="90" y="384.48" style="stroke: #000000; stroke-width: 0.8"/>
      </g>
     </g>
     <g id="text_7">
      <!-- −6 -->
      <g transform="translate(68.257812 388.279219) scale(0.1 -0.1)">
       <defs>
        <path id="DejaVuSans-36" d="M 2113 2584 
Q 1688 2584 1439 2293 
Q 1191 2003 1191 1497 
Q 1191 994 1439 701 
Q 1688 409 2113 409 
Q 2538 409 2786 701 
Q 3034 994 3034 1497 
Q 3034 2003 2786 2293 
Q 2538 2584 2113 2584 
z
M 3366 4563 
L 3366 3988 
Q 3128 4100 2886 4159 
Q 2644 4219 2406 4219 
Q 1781 4219 1451 3797 
Q 1122 3375 1075 2522 
Q 1259 2794 1537 2939 
Q 1816 3084 2150 3084 
Q 2853 3084 3261 2657 
Q 3669 2231 3669 1497 
Q 3669 778 3244 343 
Q 2819 -91 2113 -91 
Q 1303 -91 875 529 
Q 447 1150 447 2328 
Q 447 3434 972 4092 
Q 1497 4750 2381 4750 
Q 2619 4750 2861 4703 
Q 3103 4656 3366 4563 
z
" transform="scale(0.015625)"/>
       </defs>
       <use xlink:href="#DejaVuSans-2212"/>
       <use xlink:href="#DejaVuSans-36" x="83.789062"/>
      </g>
     </g>
    </g>
    <g id="ytick_2">
     <g id="line2d_13">
      <path d="M 90 329.04 
L 648 329.04 
" clip-path="url(#p64b22d7a7c)" style="fill: none; stroke: #b0b0b0; stroke-width: 0.8; stroke-linecap: square"/>
     </g>
     <g id="line2d_14">
      <g>
       <use xlink:href="#m330558c901" x="90" y="329.04" style="stroke: #000000; stroke-width: 0.8"/>
      </g>
     </g>
     <g id="text_8">
      <!-- −4 -->
      <g transform="translate(68.257812 332.839219) scale(0.1 -0.1)">
       <use xlink:href="#DejaVuSans-2212"/>
       <use xlink:href="#DejaVuSans-34" x="83.789062"/>
      </g>
     </g>
    </g>
    <g id="ytick_3">
     <g id="line2d_15">
      <path d="M 90 273.6 
L 648 273.6 
" clip-path="url(#p64b22d7a7c)" style="fill: none; stroke: #b0b0b0; stroke-width: 0.8; stroke-linecap: square"/>
     </g>
     <g id="line2d_16">
      <g>
       <use xlink:href="#m330558c901" x="90" y="273.6" style="stroke: #000000; stroke-width: 0.8"/>
      </g>
     </g>
     <g id="text_9">
      <!-- −2 -->
      <g transform="translate(68.257812 277.399219) scale(0.1 -0.1)">
       <use xlink:href="#DejaVuSans-2212"/>
       <use xlink:href="#DejaVuSans-32" x="83.789062"/>
      </g>
     </g>
    </g>
    <g id="ytick_4">
     <g id="line2d_17">
      <path d="M 90 218.16 
L 648 218.16 
" clip-path="url(#p64b22d7a7c)" style="fill: none; stroke: #b0b0b0; stroke-width: 0.8; stroke-linecap: square"/>
     </g>
     <g id="line2d_18">
      <g>
       <use xlink:href="#m330558c901" x="90" y="218.16" style="stroke: #000000; stroke-width: 0.8"/>
      </g>
     </g>
     <g id="text_10">
      <!-- 0 -->
      <g transform="translate(76.6375 221.959219) scale(0.1 -0.1)">
       <use xlink:href="#DejaVuSans-30"/>
      </g>
     </g>
    </g>
    <g id="ytick_5">
     <g id="line2d_19">
      <path d="M 90 162.72 
L 648 162.72 
" clip-path="url(#p64b22d7a7c)" style="fill: none; stroke: #b0b0b0; stroke-width: 0.8; stroke-linecap: square"/>
     </g>
     <g id="line2d_20">
      <g>
       <use xlink:href="#m330558c901" x="90" y="162.72" style="stroke: #000000; stroke-width: 0.8"/>
      </g>
     </g>
     <g id="text_11">
      <!-- 2 -->
      <g transform="translate(76.6375 166.519219) scale(0.1 -0.1)">
       <use xlink:href="#DejaVuSans-32"/>
      </g>
     </g>
    </g>
    <g id="ytick_6">
     <g id="line2d_21">
      <path d="M 90 107.28 
L 648 107.28 
" clip-path="url(#p64b22d7a7c)" style="fill: none; stroke: #b0b0b0; stroke-width: 0.8; stroke-linecap: square"/>
     </g>
     <g id="line2d_22">
      <g>
       <use xlink:href="#m330558c901" x="90" y="107.28" style="stroke: #000000; stroke-width: 0.8"/>
      </g>
     </g>
     <g id="text_12">
      <!-- 4 -->
      <g transform="translate(76.6375 111.079219) scale(0.1 -0.1)">
       <use xlink:href="#DejaVuSans-34"/>
      </g>
     </g>
    </g>
    <g id="ytick_7">
     <g id="line2d_23">
      <path d="M 90 51.84 
L 648 51.84 
" clip-path="url(#p64b22d7a7c)" style="fill: none; stroke: #b0b0b0; stroke-width: 0.8; stroke-linecap: square"/>
     </g>
     <g id="line2d_24">
      <g>
       <use xlink:href="#m330558c901" x="90" y="51.84" style="stroke: #000000; stroke-width: 0.8"/>
      </g>
     </g>
     <g id="text_13">
      <!-- 6 -->
      <g transform="translate(76.6375 55.639219) scale(0.1 -0.1)">
       <use xlink:href="#DejaVuSans-36"/>
      </g>
     </g>
    </g>
    <g id="text_14">
     <!-- $y$ -->
     <g transform="translate(62.157812 221.16) rotate(-90) scale(0.1 -0.1)">
      <defs>
       <path id="DejaVuSans-Oblique-79" d="M 1588 -325 
Q 1188 -997 936 -1164 
Q 684 -1331 294 -1331 
L -159 -1331 
L -63 -850 
L 269 -850 
Q 509 -850 678 -719 
Q 847 -588 1056 -206 
L 1234 128 
L 459 3500 
L 1069 3500 
L 1650 819 
L 3256 3500 
L 3859 3500 
L 1588 -325 
z
" transform="scale(0.015625)"/>
      </defs>
      <use xlink:href="#DejaVuSans-Oblique-79" transform="translate(0 0.3125)"/>
     </g>
    </g>
   </g>
   <g id="line2d_25">
    <path d="M 229.50558 403.459655 
L 229.85505 288.475607 
L 230.20452 269.619668 
L 230.903461 250.795509 
L 231.602401 239.874086 
L 232.301342 232.20068 
L 233.349752 223.815042 
L 234.398163 217.568789 
L 235.446574 212.625869 
L 236.494985 208.561674 
L 237.892865 204.099385 
L 239.290746 200.423244 
L 240.688627 197.32445 
L 242.435978 194.062045 
L 244.183329 191.320653 
L 245.930681 188.985491 
L 247.678032 186.976796 
L 249.774853 184.917225 
L 251.871674 183.172884 
L 253.968496 181.690901 
L 256.414787 180.241197 
L 258.861079 179.047621 
L 261.656841 177.951797 
L 264.452603 177.10392 
L 267.248364 176.473624 
L 270.393596 175.995899 
L 273.538828 175.739074 
L 277.033531 175.689937 
L 280.528233 175.871155 
L 284.022935 176.269264 
L 287.517637 176.875334 
L 291.36181 177.776188 
L 295.205982 178.920375 
L 299.050155 180.310261 
L 302.894327 181.952653 
L 306.7385 183.858991 
L 310.233202 185.834889 
L 313.727904 188.059179 
L 317.222607 190.553306 
L 320.717309 193.344598 
L 323.862541 196.139378 
L 327.007773 199.234815 
L 330.153005 202.671006 
L 332.948767 206.052342 
L 335.744529 209.788352 
L 338.54029 213.936784 
L 340.986582 217.96327 
L 343.432874 222.427499 
L 345.879165 227.414394 
L 347.975986 232.190022 
L 350.072808 237.528557 
L 352.169629 243.560101 
L 353.91698 249.245113 
L 355.664331 255.684691 
L 357.411683 263.089669 
L 358.809563 269.915064 
L 360.207444 277.796864 
L 361.605325 287.101156 
L 362.653736 295.358466 
L 363.702147 305.151563 
L 364.750557 317.16114 
L 365.798968 332.654054 
L 366.497908 346.169705 
L 367.196849 364.190301 
L 367.895789 391.238005 
L 368.24526 412.263689 
L 368.455896 433 
L 368.455896 433 
" clip-path="url(#p64b22d7a7c)" style="fill: none; stroke: #2ecc71; stroke-width: 1.5; stroke-linecap: square"/>
   </g>
   <g id="line2d_26">
    <path d="M 369.653108 433 
L 369.754908 411.951378 
L 370.454017 375.473251 
L 371.153125 353.570891 
L 371.852233 337.845687 
L 372.551341 325.556152 
L 373.949558 306.88195 
L 375.347774 292.821116 
L 376.745991 281.520131 
L 378.144208 272.058147 
L 379.542424 263.910234 
L 380.940641 256.748601 
L 383.037965 247.396162 
L 385.13529 239.30042 
L 387.232615 232.154417 
L 389.32994 225.751807 
L 391.427265 219.947175 
L 394.223698 212.957983 
L 397.020131 206.662423 
L 399.816564 200.92955 
L 402.612997 195.662566 
L 406.108538 189.623497 
L 409.60408 184.089415 
L 413.099621 178.978186 
L 416.595162 174.226428 
L 420.789812 168.929222 
L 424.984462 164.010232 
L 429.179111 159.416114 
L 434.072869 154.410508 
L 438.966627 149.735211 
L 443.860385 145.346936 
L 449.453251 140.638437 
L 455.046117 136.216436 
L 461.338092 131.541145 
L 467.630066 127.144294 
L 474.621149 122.545532 
L 481.612232 118.212751 
L 489.302423 113.717567 
L 496.992614 109.473688 
L 505.381913 105.097971 
L 514.47032 100.62291 
L 523.558728 96.392877 
L 533.346244 92.081172 
L 543.832868 87.71137 
L 555.0186 83.303904 
L 566.903441 78.87633 
L 578.788281 74.683474 
L 591.37223 70.47277 
L 604.655287 66.257011 
L 618.637453 62.047126 
L 633.318726 57.852385 
L 648 53.865611 
L 648 53.865611 
" clip-path="url(#p64b22d7a7c)" style="fill: none; stroke: #2ecc71; stroke-width: 1.5; stroke-linecap: square"/>
   </g>
   <g id="line2d_27">
    <path d="M 90 240.336 
L 102.182511 241.90323 
L 112.972734 243.516841 
L 122.370671 245.141725 
L 130.724392 246.802577 
L 138.38197 248.549702 
L 145.343405 250.371441 
L 151.608696 252.248474 
L 157.177844 254.151783 
L 162.050848 256.040843 
L 166.57578 258.024087 
L 170.752641 260.093791 
L 174.58143 262.236713 
L 178.062148 264.432652 
L 181.194793 266.653027 
L 184.327439 269.153046 
L 187.112012 271.65891 
L 189.896586 274.489068 
L 192.333088 277.287665 
L 194.769591 280.45217 
L 196.858021 283.517031 
L 198.946451 286.976719 
L 201.034882 290.917173 
L 202.77524 294.64867 
L 204.515599 298.87724 
L 206.255958 303.713747 
L 207.996316 309.304914 
L 209.388603 314.452195 
L 210.78089 320.34318 
L 212.173177 327.156518 
L 213.565464 335.133268 
L 214.957751 344.60678 
L 216.350038 356.051547 
L 217.394253 366.337282 
L 218.438468 378.540559 
L 219.482683 393.260472 
L 220.526898 411.374968 
L 221.519473 433 
L 221.519473 433 
" clip-path="url(#p64b22d7a7c)" style="fill: none; stroke-dasharray: 5.55,2.4; stroke-dashoffset: 0; stroke: #2980b9; stroke-width: 1.5"/>
   </g>
   <g id="line2d_28">
    <path d="M 235.88456 -1 
L 236.847098 31.040044 
L 237.895886 57.525922 
L 238.944674 78.174137 
L 239.993463 94.736035 
L 241.042251 108.326447 
L 242.440635 123.074887 
L 243.83902 135.004776 
L 245.237404 144.869252 
L 246.635788 153.175689 
L 248.034173 160.278411 
L 249.432557 166.432383 
L 251.180538 173.072727 
L 252.928518 178.791051 
L 254.676498 183.782337 
L 256.424479 188.191105 
L 258.522055 192.864965 
L 260.619632 196.999285 
L 263.066805 201.282332 
L 265.513977 205.104104 
L 268.310746 209.029432 
L 271.107515 212.586127 
L 274.25388 216.249132 
L 278.099437 220.365229 
L 282.644186 224.878048 
L 288.936915 230.775104 
L 300.823182 241.848562 
L 305.717528 246.750586 
L 309.912681 251.280125 
L 313.408642 255.374025 
L 316.555006 259.378802 
L 319.701371 263.763247 
L 322.49814 268.053006 
L 324.945313 272.174836 
L 327.392485 276.710036 
L 329.839658 281.741662 
L 331.937234 286.528177 
L 334.034811 291.838442 
L 336.132388 297.775905 
L 338.229964 304.471961 
L 339.977945 310.752372 
L 341.725925 317.801937 
L 343.473905 325.78043 
L 345.221886 334.894492 
L 346.969866 345.416232 
L 348.368251 355.088809 
L 349.766635 366.141771 
L 351.165019 378.900784 
L 352.563404 393.802295 
L 353.961788 411.445037 
L 355.379212 433 
L 355.379212 433 
" clip-path="url(#p64b22d7a7c)" style="fill: none; stroke-dasharray: 5.55,2.4; stroke-dashoffset: 0; stroke: #2980b9; stroke-width: 1.5"/>
   </g>
   <g id="line2d_29">
    <path d="M 383.79625 -1 
L 385.087965 15.928686 
L 386.486433 31.395524 
L 387.884902 44.583208 
L 389.28337 55.962875 
L 390.681838 65.884119 
L 392.080306 74.611811 
L 393.478775 82.350305 
L 395.576477 92.444479 
L 397.67418 101.076206 
L 399.771882 108.544068 
L 401.869584 115.070453 
L 403.967287 120.824403 
L 406.064989 125.936708 
L 408.162692 130.510156 
L 410.260394 134.626641 
L 412.358096 138.352224 
L 415.155033 142.803311 
L 417.951969 146.756541 
L 420.748906 150.29219 
L 423.545843 153.474095 
L 426.342779 156.35366 
L 429.83895 159.59099 
L 433.33512 162.486667 
L 436.831291 165.09303 
L 440.327462 167.452187 
L 444.522867 170.004665 
L 448.718271 172.298069 
L 453.61291 174.697 
L 458.507549 176.843831 
L 464.101422 179.037815 
L 469.695295 180.998428 
L 475.988403 182.969917 
L 482.980744 184.916851 
L 490.67232 186.812292 
L 499.063129 188.636912 
L 508.153173 190.377828 
L 517.942451 192.027372 
L 529.130197 193.678737 
L 541.017177 195.210729 
L 554.302626 196.703204 
L 569.685777 198.198239 
L 586.467396 199.601538 
L 605.346718 200.955515 
L 627.022976 202.279521 
L 648 203.376 
L 648 203.376 
" clip-path="url(#p64b22d7a7c)" style="fill: none; stroke-dasharray: 5.55,2.4; stroke-dashoffset: 0; stroke: #2980b9; stroke-width: 1.5"/>
   </g>
   <g id="patch_3">
    <path d="M 90 384.48 
L 90 51.84 
" style="fill: none; stroke: #000000; stroke-width: 0.8; stroke-linejoin: miter; stroke-linecap: square"/>
   </g>
   <g id="patch_4">
    <path d="M 648 384.48 
L 648 51.84 
" style="fill: none; stroke: #000000; stroke-width: 0.8; stroke-linejoin: miter; stroke-linecap: square"/>
   </g>
   <g id="patch_5">
    <path d="M 90 384.48 
L 648 384.48 
" style="fill: none; stroke: #000000; stroke-width: 0.8; stroke-linejoin: miter; stroke-linecap: square"/>
   </g>
   <g id="patch_6">
    <path d="M 90 51.84 
L 648 51.84 
" style="fill: none; stroke: #000000; stroke-width: 0.8; stroke-linejoin: miter; stroke-linecap: square"/>
   </g>
   <g id="text_15">
    <!-- Derivada - Ejercicio 37 -->
    <g transform="translate(301.235625 45.84) scale(0.12 -0.12)">
     <defs>
      <path id="DejaVuSans-44" d="M 1259 4147 
L 1259 519 
L 2022 519 
Q 2988 519 3436 956 
Q 3884 1394 3884 2338 
Q 3884 3275 3436 3711 
Q 2988 4147 2022 4147 
L 1259 4147 
z
M 628 4666 
L 1925 4666 
Q 3281 4666 3915 4102 
Q 4550 3538 4550 2338 
Q 4550 1131 3912 565 
Q 3275 0 1925 0 
L 628 0 
L 628 4666 
z
" transform="scale(0.015625)"/>
      <path id="DejaVuSans-65" d="M 3597 1894 
L 3597 1613 
L 953 1613 
Q 991 1019 1311 708 
Q 1631 397 2203 397 
Q 2534 397 2845 478 
Q 3156 559 3463 722 
L 3463 178 
Q 3153 47 2828 -22 
Q 2503 -91 2169 -91 
Q 1331 -91 842 396 
Q 353 884 353 1716 
Q 353 2575 817 3079 
Q 1281 3584 2069 3584 
Q 2775 3584 3186 3129 
Q 3597 2675 3597 1894 
z
M 3022 2063 
Q 3016 2534 2758 2815 
Q 2500 3097 2075 3097 
Q 1594 3097 1305 2825 
Q 1016 2553 972 2059 
L 3022 2063 
z
" transform="scale(0.015625)"/>
      <path id="DejaVuSans-72" d="M 2631 2963 
Q 2534 3019 2420 3045 
Q 2306 3072 2169 3072 
Q 1681 3072 1420 2755 
Q 1159 2438 1159 1844 
L 1159 0 
L 581 0 
L 581 3500 
L 1159 3500 
L 1159 2956 
Q 1341 3275 1631 3429 
Q 1922 3584 2338 3584 
Q 2397 3584 2469 3576 
Q 2541 3569 2628 3553 
L 2631 2963 
z
" transform="scale(0.015625)"/>
      <path id="DejaVuSans-69" d="M 603 3500 
L 1178 3500 
L 1178 0 
L 603 0 
L 603 3500 
z
M 603 4863 
L 1178 4863 
L 1178 4134 
L 603 4134 
L 603 4863 
z
" transform="scale(0.015625)"/>
      <path id="DejaVuSans-76" d="M 191 3500 
L 800 3500 
L 1894 563 
L 2988 3500 
L 3597 3500 
L 2284 0 
L 1503 0 
L 191 3500 
z
" transform="scale(0.015625)"/>
      <path id="DejaVuSans-61" d="M 2194 1759 
Q 1497 1759 1228 1600 
Q 959 1441 959 1056 
Q 959 750 1161 570 
Q 1363 391 1709 391 
Q 2188 391 2477 730 
Q 2766 1069 2766 1631 
L 2766 1759 
L 2194 1759 
z
M 3341 1997 
L 3341 0 
L 2766 0 
L 2766 531 
Q 2569 213 2275 61 
Q 1981 -91 1556 -91 
Q 1019 -91 701 211 
Q 384 513 384 1019 
Q 384 1609 779 1909 
Q 1175 2209 1959 2209 
L 2766 2209 
L 2766 2266 
Q 2766 2663 2505 2880 
Q 2244 3097 1772 3097 
Q 1472 3097 1187 3025 
Q 903 2953 641 2809 
L 641 3341 
Q 956 3463 1253 3523 
Q 1550 3584 1831 3584 
Q 2591 3584 2966 3190 
Q 3341 2797 3341 1997 
z
" transform="scale(0.015625)"/>
      <path id="DejaVuSans-64" d="M 2906 2969 
L 2906 4863 
L 3481 4863 
L 3481 0 
L 2906 0 
L 2906 525 
Q 2725 213 2448 61 
Q 2172 -91 1784 -91 
Q 1150 -91 751 415 
Q 353 922 353 1747 
Q 353 2572 751 3078 
Q 1150 3584 1784 3584 
Q 2172 3584 2448 3432 
Q 2725 3281 2906 2969 
z
M 947 1747 
Q 947 1113 1208 752 
Q 1469 391 1925 391 
Q 2381 391 2643 752 
Q 2906 1113 2906 1747 
Q 2906 2381 2643 2742 
Q 2381 3103 1925 3103 
Q 1469 3103 1208 2742 
Q 947 2381 947 1747 
z
" transform="scale(0.015625)"/>
      <path id="DejaVuSans-20" transform="scale(0.015625)"/>
      <path id="DejaVuSans-2d" d="M 313 2009 
L 1997 2009 
L 1997 1497 
L 313 1497 
L 313 2009 
z
" transform="scale(0.015625)"/>
      <path id="DejaVuSans-45" d="M 628 4666 
L 3578 4666 
L 3578 4134 
L 1259 4134 
L 1259 2753 
L 3481 2753 
L 3481 2222 
L 1259 2222 
L 1259 531 
L 3634 531 
L 3634 0 
L 628 0 
L 628 4666 
z
" transform="scale(0.015625)"/>
      <path id="DejaVuSans-6a" d="M 603 3500 
L 1178 3500 
L 1178 -63 
Q 1178 -731 923 -1031 
Q 669 -1331 103 -1331 
L -116 -1331 
L -116 -844 
L 38 -844 
Q 366 -844 484 -692 
Q 603 -541 603 -63 
L 603 3500 
z
M 603 4863 
L 1178 4863 
L 1178 4134 
L 603 4134 
L 603 4863 
z
" transform="scale(0.015625)"/>
      <path id="DejaVuSans-63" d="M 3122 3366 
L 3122 2828 
Q 2878 2963 2633 3030 
Q 2388 3097 2138 3097 
Q 1578 3097 1268 2742 
Q 959 2388 959 1747 
Q 959 1106 1268 751 
Q 1578 397 2138 397 
Q 2388 397 2633 464 
Q 2878 531 3122 666 
L 3122 134 
Q 2881 22 2623 -34 
Q 2366 -91 2075 -91 
Q 1284 -91 818 406 
Q 353 903 353 1747 
Q 353 2603 823 3093 
Q 1294 3584 2113 3584 
Q 2378 3584 2631 3529 
Q 2884 3475 3122 3366 
z
" transform="scale(0.015625)"/>
      <path id="DejaVuSans-6f" d="M 1959 3097 
Q 1497 3097 1228 2736 
Q 959 2375 959 1747 
Q 959 1119 1226 758 
Q 1494 397 1959 397 
Q 2419 397 2687 759 
Q 2956 1122 2956 1747 
Q 2956 2369 2687 2733 
Q 2419 3097 1959 3097 
z
M 1959 3584 
Q 2709 3584 3137 3096 
Q 3566 2609 3566 1747 
Q 3566 888 3137 398 
Q 2709 -91 1959 -91 
Q 1206 -91 779 398 
Q 353 888 353 1747 
Q 353 2609 779 3096 
Q 1206 3584 1959 3584 
z
" transform="scale(0.015625)"/>
      <path id="DejaVuSans-33" d="M 2597 2516 
Q 3050 2419 3304 2112 
Q 3559 1806 3559 1356 
Q 3559 666 3084 287 
Q 2609 -91 1734 -91 
Q 1441 -91 1130 -33 
Q 819 25 488 141 
L 488 750 
Q 750 597 1062 519 
Q 1375 441 1716 441 
Q 2309 441 2620 675 
Q 2931 909 2931 1356 
Q 2931 1769 2642 2001 
Q 2353 2234 1838 2234 
L 1294 2234 
L 1294 2753 
L 1863 2753 
Q 2328 2753 2575 2939 
Q 2822 3125 2822 3475 
Q 2822 3834 2567 4026 
Q 2313 4219 1838 4219 
Q 1578 4219 1281 4162 
Q 984 4106 628 3988 
L 628 4550 
Q 988 4650 1302 4700 
Q 1616 4750 1894 4750 
Q 2613 4750 3031 4423 
Q 3450 4097 3450 3541 
Q 3450 3153 3228 2886 
Q 3006 2619 2597 2516 
z
" transform="scale(0.015625)"/>
      <path id="DejaVuSans-37" d="M 525 4666 
L 3525 4666 
L 3525 4397 
L 1831 0 
L 1172 0 
L 2766 4134 
L 525 4134 
L 525 4666 
z
" transform="scale(0.015625)"/>
     </defs>
     <use xlink:href="#DejaVuSans-44"/>
     <use xlink:href="#DejaVuSans-65" x="77.001953"/>
     <use xlink:href="#DejaVuSans-72" x="138.525391"/>
     <use xlink:href="#DejaVuSans-69" x="179.638672"/>
     <use xlink:href="#DejaVuSans-76" x="207.421875"/>
     <use xlink:href="#DejaVuSans-61" x="266.601562"/>
     <use xlink:href="#DejaVuSans-64" x="327.880859"/>
     <use xlink:href="#DejaVuSans-61" x="391.357422"/>
     <use xlink:href="#DejaVuSans-20" x="452.636719"/>
     <use xlink:href="#DejaVuSans-2d" x="484.423828"/>
     <use xlink:href="#DejaVuSans-20" x="520.507812"/>
     <use xlink:href="#DejaVuSans-45" x="552.294922"/>
     <use xlink:href="#DejaVuSans-6a" x="615.478516"/>
     <use xlink:href="#DejaVuSans-65" x="643.261719"/>
     <use xlink:href="#DejaVuSans-72" x="704.785156"/>
     <use xlink:href="#DejaVuSans-63" x="743.648438"/>
     <use xlink:href="#DejaVuSans-69" x="798.628906"/>
     <use xlink:href="#DejaVuSans-63" x="826.412109"/>
     <use xlink:href="#DejaVuSans-69" x="881.392578"/>
     <use xlink:href="#DejaVuSans-6f" x="909.175781"/>
     <use xlink:href="#DejaVuSans-20" x="970.357422"/>
     <use xlink:href="#DejaVuSans-33" x="1002.144531"/>
     <use xlink:href="#DejaVuSans-37" x="1065.767578"/>
    </g>
   </g>
   <g id="legend_1">
    <g id="patch_7">
     <path d="M 97 95.34 
L 187.3 95.34 
Q 189.3 95.34 189.3 93.34 
L 189.3 58.84 
Q 189.3 56.84 187.3 56.84 
L 97 56.84 
Q 95 56.84 95 58.84 
L 95 93.34 
Q 95 95.34 97 95.34 
z
" style="fill: #ffffff; opacity: 0.8; stroke: #cccccc; stroke-linejoin: miter"/>
    </g>
    <g id="line2d_30">
     <path d="M 99 65.34 
L 109 65.34 
L 119 65.34 
" style="fill: none; stroke: #2ecc71; stroke-width: 1.5; stroke-linecap: square"/>
    </g>
    <g id="text_16">
     <!-- Función $y$ -->
     <g transform="translate(127 68.84) scale(0.1 -0.1)">
      <defs>
       <path id="DejaVuSans-46" d="M 628 4666 
L 3309 4666 
L 3309 4134 
L 1259 4134 
L 1259 2759 
L 3109 2759 
L 3109 2228 
L 1259 2228 
L 1259 0 
L 628 0 
L 628 4666 
z
" transform="scale(0.015625)"/>
       <path id="DejaVuSans-75" d="M 544 1381 
L 544 3500 
L 1119 3500 
L 1119 1403 
Q 1119 906 1312 657 
Q 1506 409 1894 409 
Q 2359 409 2629 706 
Q 2900 1003 2900 1516 
L 2900 3500 
L 3475 3500 
L 3475 0 
L 2900 0 
L 2900 538 
Q 2691 219 2414 64 
Q 2138 -91 1772 -91 
Q 1169 -91 856 284 
Q 544 659 544 1381 
z
M 1991 3584 
L 1991 3584 
z
" transform="scale(0.015625)"/>
       <path id="DejaVuSans-6e" d="M 3513 2113 
L 3513 0 
L 2938 0 
L 2938 2094 
Q 2938 2591 2744 2837 
Q 2550 3084 2163 3084 
Q 1697 3084 1428 2787 
Q 1159 2491 1159 1978 
L 1159 0 
L 581 0 
L 581 3500 
L 1159 3500 
L 1159 2956 
Q 1366 3272 1645 3428 
Q 1925 3584 2291 3584 
Q 2894 3584 3203 3211 
Q 3513 2838 3513 2113 
z
" transform="scale(0.015625)"/>
       <path id="DejaVuSans-f3" d="M 1959 3097 
Q 1497 3097 1228 2736 
Q 959 2375 959 1747 
Q 959 1119 1226 758 
Q 1494 397 1959 397 
Q 2419 397 2687 759 
Q 2956 1122 2956 1747 
Q 2956 2369 2687 2733 
Q 2419 3097 1959 3097 
z
M 1959 3584 
Q 2709 3584 3137 3096 
Q 3566 2609 3566 1747 
Q 3566 888 3137 398 
Q 2709 -91 1959 -91 
Q 1206 -91 779 398 
Q 353 888 353 1747 
Q 353 2609 779 3096 
Q 1206 3584 1959 3584 
z
M 2394 5119 
L 3016 5119 
L 1998 3944 
L 1519 3944 
L 2394 5119 
z
" transform="scale(0.015625)"/>
      </defs>
      <use xlink:href="#DejaVuSans-46" transform="translate(0 0.015625)"/>
      <use xlink:href="#DejaVuSans-75" transform="translate(57.519531 0.015625)"/>
      <use xlink:href="#DejaVuSans-6e" transform="translate(120.898438 0.015625)"/>
      <use xlink:href="#DejaVuSans-63" transform="translate(184.277344 0.015625)"/>
      <use xlink:href="#DejaVuSans-69" transform="translate(239.257812 0.015625)"/>
      <use xlink:href="#DejaVuSans-f3" transform="translate(267.041016 0.015625)"/>
      <use xlink:href="#DejaVuSans-6e" transform="translate(328.222656 0.015625)"/>
      <use xlink:href="#DejaVuSans-20" transform="translate(391.601562 0.015625)"/>
      <use xlink:href="#DejaVuSans-Oblique-79" transform="translate(423.388672 0.015625)"/>
     </g>
    </g>
    <g id="line2d_31">
     <path d="M 99 83.64 
L 109 83.64 
L 119 83.64 
" style="fill: none; stroke-dasharray: 5.55,2.4; stroke-dashoffset: 0; stroke: #2980b9; stroke-width: 1.5"/>
    </g>
    <g id="text_17">
     <!-- Derivada $\frac{dy}{dx}$ -->
     <g transform="translate(127 87.14) scale(0.1 -0.1)">
      <defs>
       <path id="DejaVuSans-Oblique-64" d="M 2675 525 
Q 2444 222 2128 65 
Q 1813 -91 1428 -91 
Q 903 -91 598 267 
Q 294 625 294 1247 
Q 294 1766 478 2236 
Q 663 2706 1013 3078 
Q 1244 3325 1534 3454 
Q 1825 3584 2144 3584 
Q 2481 3584 2739 3421 
Q 2997 3259 3138 2956 
L 3513 4863 
L 4091 4863 
L 3144 0 
L 2566 0 
L 2675 525 
z
M 891 1350 
Q 891 897 1095 644 
Q 1300 391 1663 391 
Q 1931 391 2161 520 
Q 2391 650 2566 903 
Q 2750 1166 2856 1509 
Q 2963 1853 2963 2188 
Q 2963 2622 2758 2865 
Q 2553 3109 2194 3109 
Q 1922 3109 1687 2981 
Q 1453 2853 1288 2613 
Q 1106 2353 998 2009 
Q 891 1666 891 1350 
z
" transform="scale(0.015625)"/>
      </defs>
      <use xlink:href="#DejaVuSans-44" transform="translate(0 0.45625)"/>
      <use xlink:href="#DejaVuSans-65" transform="translate(77.001953 0.45625)"/>
      <use xlink:href="#DejaVuSans-72" transform="translate(138.525391 0.45625)"/>
      <use xlink:href="#DejaVuSans-69" transform="translate(179.638672 0.45625)"/>
      <use xlink:href="#DejaVuSans-76" transform="translate(207.421875 0.45625)"/>
      <use xlink:href="#DejaVuSans-61" transform="translate(266.601562 0.45625)"/>
      <use xlink:href="#DejaVuSans-64" transform="translate(327.880859 0.45625)"/>
      <use xlink:href="#DejaVuSans-61" transform="translate(391.357422 0.45625)"/>
      <use xlink:href="#DejaVuSans-20" transform="translate(452.636719 0.45625)"/>
      <use xlink:href="#DejaVuSans-Oblique-64" transform="translate(484.423828 58.810938) scale(0.7)"/>
      <use xlink:href="#DejaVuSans-Oblique-79" transform="translate(528.857422 58.810938) scale(0.7)"/>
      <use xlink:href="#DejaVuSans-Oblique-64" transform="translate(484.423828 -40.185937) scale(0.7)"/>
      <use xlink:href="#DejaVuSans-Oblique-78" transform="translate(528.857422 -40.185937) scale(0.7)"/>
      <path d="M 484.423828 19.253125 
L 484.423828 25.503125 
L 570.283203 25.503125 
L 570.283203 19.253125 
L 484.423828 19.253125 
z
"/>
     </g>
    </g>
   </g>
  </g>
  <g id="text_18">
   <!-- Cursland -->
   <g transform="translate(333.460312 17.758125) scale(0.12 -0.12)">
    <defs>
     <path id="DejaVuSans-43" d="M 4122 4306 
L 4122 3641 
Q 3803 3938 3442 4084 
Q 3081 4231 2675 4231 
Q 1875 4231 1450 3742 
Q 1025 3253 1025 2328 
Q 1025 1406 1450 917 
Q 1875 428 2675 428 
Q 3081 428 3442 575 
Q 3803 722 4122 1019 
L 4122 359 
Q 3791 134 3420 21 
Q 3050 -91 2638 -91 
Q 1578 -91 968 557 
Q 359 1206 359 2328 
Q 359 3453 968 4101 
Q 1578 4750 2638 4750 
Q 3056 4750 3426 4639 
Q 3797 4528 4122 4306 
z
" transform="scale(0.015625)"/>
     <path id="DejaVuSans-73" d="M 2834 3397 
L 2834 2853 
Q 2591 2978 2328 3040 
Q 2066 3103 1784 3103 
Q 1356 3103 1142 2972 
Q 928 2841 928 2578 
Q 928 2378 1081 2264 
Q 1234 2150 1697 2047 
L 1894 2003 
Q 2506 1872 2764 1633 
Q 3022 1394 3022 966 
Q 3022 478 2636 193 
Q 2250 -91 1575 -91 
Q 1294 -91 989 -36 
Q 684 19 347 128 
L 347 722 
Q 666 556 975 473 
Q 1284 391 1588 391 
Q 1994 391 2212 530 
Q 2431 669 2431 922 
Q 2431 1156 2273 1281 
Q 2116 1406 1581 1522 
L 1381 1569 
Q 847 1681 609 1914 
Q 372 2147 372 2553 
Q 372 3047 722 3315 
Q 1072 3584 1716 3584 
Q 2034 3584 2315 3537 
Q 2597 3491 2834 3397 
z
" transform="scale(0.015625)"/>
     <path id="DejaVuSans-6c" d="M 603 4863 
L 1178 4863 
L 1178 0 
L 603 0 
L 603 4863 
z
" transform="scale(0.015625)"/>
    </defs>
    <use xlink:href="#DejaVuSans-43"/>
    <use xlink:href="#DejaVuSans-75" x="69.824219"/>
    <use xlink:href="#DejaVuSans-72" x="133.203125"/>
    <use xlink:href="#DejaVuSans-73" x="174.316406"/>
    <use xlink:href="#DejaVuSans-6c" x="226.416016"/>
    <use xlink:href="#DejaVuSans-61" x="254.199219"/>
    <use xlink:href="#DejaVuSans-6e" x="315.478516"/>
    <use xlink:href="#DejaVuSans-64" x="378.857422"/>
   </g>
  </g>
 </g>
 <defs>
  <clipPath id="p64b22d7a7c">
   <rect x="90" y="51.84" width="558" height="332.64"/>
  </clipPath>
 </defs>
</svg>
