<?xml version="1.0" encoding="utf-8" standalone="no"?>
<!DOCTYPE svg PUBLIC "-//W3C//DTD SVG 1.1//EN"
  "http://www.w3.org/Graphics/SVG/1.1/DTD/svg11.dtd">
<svg xmlns:xlink="http://www.w3.org/1999/xlink" width="720pt" height="432pt" viewBox="0 0 720 432" xmlns="http://www.w3.org/2000/svg" version="1.1">
 <metadata>
  <rdf:RDF xmlns:dc="http://purl.org/dc/elements/1.1/" xmlns:cc="http://creativecommons.org/ns#" xmlns:rdf="http://www.w3.org/1999/02/22-rdf-syntax-ns#">
   <cc:Work>
    <dc:type rdf:resource="http://purl.org/dc/dcmitype/StillImage"/>
    <dc:date>2025-01-28T18:11:42.589788</dc:date>
    <dc:format>image/svg+xml</dc:format>
    <dc:creator>
     <cc:Agent>
      <dc:title>Matplotlib v3.8.2, https://matplotlib.org/</dc:title>
     </cc:Agent>
    </dc:creator>
   </cc:Work>
  </rdf:RDF>
 </metadata>
 <defs>
  <style type="text/css">*{stroke-linejoin: round; stroke-linecap: butt}</style>
 </defs>
 <g id="figure_1">
  <g id="patch_1">
   <path d="M 0 432 
L 720 432 
L 720 0 
L 0 0 
z
" style="fill: #ffffff"/>
  </g>
  <g id="axes_1">
   <g id="patch_2">
    <path d="M 90 384.48 
L 648 384.48 
L 648 51.84 
L 90 51.84 
z
" style="fill: #ffffff"/>
   </g>
   <g id="matplotlib.axis_1">
    <g id="xtick_1">
     <g id="line2d_1">
      <path d="M 90 384.48 
L 90 51.84 
" clip-path="url(#pd2437e1ab6)" style="fill: none; stroke: #b0b0b0; stroke-width: 0.8; stroke-linecap: square"/>
     </g>
     <g id="line2d_2">
      <defs>
       <path id="m661a46e1e3" d="M 0 0 
L 0 3.5 
" style="stroke: #000000; stroke-width: 0.8"/>
      </defs>
      <g>
       <use xlink:href="#m661a46e1e3" x="90" y="384.48" style="stroke: #000000; stroke-width: 0.8"/>
      </g>
     </g>
     <g id="text_1">
      <!-- −3 -->
      <g transform="translate(82.628906 399.078438) scale(0.1 -0.1)">
       <defs>
        <path id="DejaVuSans-2212" d="M 678 2272 
L 4684 2272 
L 4684 1741 
L 678 1741 
L 678 2272 
z
" transform="scale(0.015625)"/>
        <path id="DejaVuSans-33" d="M 2597 2516 
Q 3050 2419 3304 2112 
Q 3559 1806 3559 1356 
Q 3559 666 3084 287 
Q 2609 -91 1734 -91 
Q 1441 -91 1130 -33 
Q 819 25 488 141 
L 488 750 
Q 750 597 1062 519 
Q 1375 441 1716 441 
Q 2309 441 2620 675 
Q 2931 909 2931 1356 
Q 2931 1769 2642 2001 
Q 2353 2234 1838 2234 
L 1294 2234 
L 1294 2753 
L 1863 2753 
Q 2328 2753 2575 2939 
Q 2822 3125 2822 3475 
Q 2822 3834 2567 4026 
Q 2313 4219 1838 4219 
Q 1578 4219 1281 4162 
Q 984 4106 628 3988 
L 628 4550 
Q 988 4650 1302 4700 
Q 1616 4750 1894 4750 
Q 2613 4750 3031 4423 
Q 3450 4097 3450 3541 
Q 3450 3153 3228 2886 
Q 3006 2619 2597 2516 
z
" transform="scale(0.015625)"/>
       </defs>
       <use xlink:href="#DejaVuSans-2212"/>
       <use xlink:href="#DejaVuSans-33" x="83.789062"/>
      </g>
     </g>
    </g>
    <g id="xtick_2">
     <g id="line2d_3">
      <path d="M 183 384.48 
L 183 51.84 
" clip-path="url(#pd2437e1ab6)" style="fill: none; stroke: #b0b0b0; stroke-width: 0.8; stroke-linecap: square"/>
     </g>
     <g id="line2d_4">
      <g>
       <use xlink:href="#m661a46e1e3" x="183" y="384.48" style="stroke: #000000; stroke-width: 0.8"/>
      </g>
     </g>
     <g id="text_2">
      <!-- −2 -->
      <g transform="translate(175.628906 399.078438) scale(0.1 -0.1)">
       <defs>
        <path id="DejaVuSans-32" d="M 1228 531 
L 3431 531 
L 3431 0 
L 469 0 
L 469 531 
Q 828 903 1448 1529 
Q 2069 2156 2228 2338 
Q 2531 2678 2651 2914 
Q 2772 3150 2772 3378 
Q 2772 3750 2511 3984 
Q 2250 4219 1831 4219 
Q 1534 4219 1204 4116 
Q 875 4013 500 3803 
L 500 4441 
Q 881 4594 1212 4672 
Q 1544 4750 1819 4750 
Q 2544 4750 2975 4387 
Q 3406 4025 3406 3419 
Q 3406 3131 3298 2873 
Q 3191 2616 2906 2266 
Q 2828 2175 2409 1742 
Q 1991 1309 1228 531 
z
" transform="scale(0.015625)"/>
       </defs>
       <use xlink:href="#DejaVuSans-2212"/>
       <use xlink:href="#DejaVuSans-32" x="83.789062"/>
      </g>
     </g>
    </g>
    <g id="xtick_3">
     <g id="line2d_5">
      <path d="M 276 384.48 
L 276 51.84 
" clip-path="url(#pd2437e1ab6)" style="fill: none; stroke: #b0b0b0; stroke-width: 0.8; stroke-linecap: square"/>
     </g>
     <g id="line2d_6">
      <g>
       <use xlink:href="#m661a46e1e3" x="276" y="384.48" style="stroke: #000000; stroke-width: 0.8"/>
      </g>
     </g>
     <g id="text_3">
      <!-- −1 -->
      <g transform="translate(268.628906 399.078438) scale(0.1 -0.1)">
       <defs>
        <path id="DejaVuSans-31" d="M 794 531 
L 1825 531 
L 1825 4091 
L 703 3866 
L 703 4441 
L 1819 4666 
L 2450 4666 
L 2450 531 
L 3481 531 
L 3481 0 
L 794 0 
L 794 531 
z
" transform="scale(0.015625)"/>
       </defs>
       <use xlink:href="#DejaVuSans-2212"/>
       <use xlink:href="#DejaVuSans-31" x="83.789062"/>
      </g>
     </g>
    </g>
    <g id="xtick_4">
     <g id="line2d_7">
      <path d="M 369 384.48 
L 369 51.84 
" clip-path="url(#pd2437e1ab6)" style="fill: none; stroke: #b0b0b0; stroke-width: 0.8; stroke-linecap: square"/>
     </g>
     <g id="line2d_8">
      <g>
       <use xlink:href="#m661a46e1e3" x="369" y="384.48" style="stroke: #000000; stroke-width: 0.8"/>
      </g>
     </g>
     <g id="text_4">
      <!-- 0 -->
      <g transform="translate(365.81875 399.078438) scale(0.1 -0.1)">
       <defs>
        <path id="DejaVuSans-30" d="M 2034 4250 
Q 1547 4250 1301 3770 
Q 1056 3291 1056 2328 
Q 1056 1369 1301 889 
Q 1547 409 2034 409 
Q 2525 409 2770 889 
Q 3016 1369 3016 2328 
Q 3016 3291 2770 3770 
Q 2525 4250 2034 4250 
z
M 2034 4750 
Q 2819 4750 3233 4129 
Q 3647 3509 3647 2328 
Q 3647 1150 3233 529 
Q 2819 -91 2034 -91 
Q 1250 -91 836 529 
Q 422 1150 422 2328 
Q 422 3509 836 4129 
Q 1250 4750 2034 4750 
z
" transform="scale(0.015625)"/>
       </defs>
       <use xlink:href="#DejaVuSans-30"/>
      </g>
     </g>
    </g>
    <g id="xtick_5">
     <g id="line2d_9">
      <path d="M 462 384.48 
L 462 51.84 
" clip-path="url(#pd2437e1ab6)" style="fill: none; stroke: #b0b0b0; stroke-width: 0.8; stroke-linecap: square"/>
     </g>
     <g id="line2d_10">
      <g>
       <use xlink:href="#m661a46e1e3" x="462" y="384.48" style="stroke: #000000; stroke-width: 0.8"/>
      </g>
     </g>
     <g id="text_5">
      <!-- 1 -->
      <g transform="translate(458.81875 399.078438) scale(0.1 -0.1)">
       <use xlink:href="#DejaVuSans-31"/>
      </g>
     </g>
    </g>
    <g id="xtick_6">
     <g id="line2d_11">
      <path d="M 555 384.48 
L 555 51.84 
" clip-path="url(#pd2437e1ab6)" style="fill: none; stroke: #b0b0b0; stroke-width: 0.8; stroke-linecap: square"/>
     </g>
     <g id="line2d_12">
      <g>
       <use xlink:href="#m661a46e1e3" x="555" y="384.48" style="stroke: #000000; stroke-width: 0.8"/>
      </g>
     </g>
     <g id="text_6">
      <!-- 2 -->
      <g transform="translate(551.81875 399.078438) scale(0.1 -0.1)">
       <use xlink:href="#DejaVuSans-32"/>
      </g>
     </g>
    </g>
    <g id="xtick_7">
     <g id="line2d_13">
      <path d="M 648 384.48 
L 648 51.84 
" clip-path="url(#pd2437e1ab6)" style="fill: none; stroke: #b0b0b0; stroke-width: 0.8; stroke-linecap: square"/>
     </g>
     <g id="line2d_14">
      <g>
       <use xlink:href="#m661a46e1e3" x="648" y="384.48" style="stroke: #000000; stroke-width: 0.8"/>
      </g>
     </g>
     <g id="text_7">
      <!-- 3 -->
      <g transform="translate(644.81875 399.078438) scale(0.1 -0.1)">
       <use xlink:href="#DejaVuSans-33"/>
      </g>
     </g>
    </g>
    <g id="text_8">
     <!-- $x$ -->
     <g transform="translate(366 412.756563) scale(0.1 -0.1)">
      <defs>
       <path id="DejaVuSans-Oblique-78" d="M 3841 3500 
L 2234 1784 
L 3219 0 
L 2559 0 
L 1819 1388 
L 531 0 
L -166 0 
L 1556 1844 
L 641 3500 
L 1300 3500 
L 1972 2234 
L 3144 3500 
L 3841 3500 
z
" transform="scale(0.015625)"/>
      </defs>
      <use xlink:href="#DejaVuSans-Oblique-78" transform="translate(0 0.3125)"/>
     </g>
    </g>
   </g>
   <g id="matplotlib.axis_2">
    <g id="ytick_1">
     <g id="line2d_15">
      <path d="M 90 384.48 
L 648 384.48 
" clip-path="url(#pd2437e1ab6)" style="fill: none; stroke: #b0b0b0; stroke-width: 0.8; stroke-linecap: square"/>
     </g>
     <g id="line2d_16">
      <defs>
       <path id="m18839592bb" d="M 0 0 
L -3.5 0 
" style="stroke: #000000; stroke-width: 0.8"/>
      </defs>
      <g>
       <use xlink:href="#m18839592bb" x="90" y="384.48" style="stroke: #000000; stroke-width: 0.8"/>
      </g>
     </g>
     <g id="text_9">
      <!-- −6 -->
      <g transform="translate(68.257812 388.279219) scale(0.1 -0.1)">
       <defs>
        <path id="DejaVuSans-36" d="M 2113 2584 
Q 1688 2584 1439 2293 
Q 1191 2003 1191 1497 
Q 1191 994 1439 701 
Q 1688 409 2113 409 
Q 2538 409 2786 701 
Q 3034 994 3034 1497 
Q 3034 2003 2786 2293 
Q 2538 2584 2113 2584 
z
M 3366 4563 
L 3366 3988 
Q 3128 4100 2886 4159 
Q 2644 4219 2406 4219 
Q 1781 4219 1451 3797 
Q 1122 3375 1075 2522 
Q 1259 2794 1537 2939 
Q 1816 3084 2150 3084 
Q 2853 3084 3261 2657 
Q 3669 2231 3669 1497 
Q 3669 778 3244 343 
Q 2819 -91 2113 -91 
Q 1303 -91 875 529 
Q 447 1150 447 2328 
Q 447 3434 972 4092 
Q 1497 4750 2381 4750 
Q 2619 4750 2861 4703 
Q 3103 4656 3366 4563 
z
" transform="scale(0.015625)"/>
       </defs>
       <use xlink:href="#DejaVuSans-2212"/>
       <use xlink:href="#DejaVuSans-36" x="83.789062"/>
      </g>
     </g>
    </g>
    <g id="ytick_2">
     <g id="line2d_17">
      <path d="M 90 329.04 
L 648 329.04 
" clip-path="url(#pd2437e1ab6)" style="fill: none; stroke: #b0b0b0; stroke-width: 0.8; stroke-linecap: square"/>
     </g>
     <g id="line2d_18">
      <g>
       <use xlink:href="#m18839592bb" x="90" y="329.04" style="stroke: #000000; stroke-width: 0.8"/>
      </g>
     </g>
     <g id="text_10">
      <!-- −4 -->
      <g transform="translate(68.257812 332.839219) scale(0.1 -0.1)">
       <defs>
        <path id="DejaVuSans-34" d="M 2419 4116 
L 825 1625 
L 2419 1625 
L 2419 4116 
z
M 2253 4666 
L 3047 4666 
L 3047 1625 
L 3713 1625 
L 3713 1100 
L 3047 1100 
L 3047 0 
L 2419 0 
L 2419 1100 
L 313 1100 
L 313 1709 
L 2253 4666 
z
" transform="scale(0.015625)"/>
       </defs>
       <use xlink:href="#DejaVuSans-2212"/>
       <use xlink:href="#DejaVuSans-34" x="83.789062"/>
      </g>
     </g>
    </g>
    <g id="ytick_3">
     <g id="line2d_19">
      <path d="M 90 273.6 
L 648 273.6 
" clip-path="url(#pd2437e1ab6)" style="fill: none; stroke: #b0b0b0; stroke-width: 0.8; stroke-linecap: square"/>
     </g>
     <g id="line2d_20">
      <g>
       <use xlink:href="#m18839592bb" x="90" y="273.6" style="stroke: #000000; stroke-width: 0.8"/>
      </g>
     </g>
     <g id="text_11">
      <!-- −2 -->
      <g transform="translate(68.257812 277.399219) scale(0.1 -0.1)">
       <use xlink:href="#DejaVuSans-2212"/>
       <use xlink:href="#DejaVuSans-32" x="83.789062"/>
      </g>
     </g>
    </g>
    <g id="ytick_4">
     <g id="line2d_21">
      <path d="M 90 218.16 
L 648 218.16 
" clip-path="url(#pd2437e1ab6)" style="fill: none; stroke: #b0b0b0; stroke-width: 0.8; stroke-linecap: square"/>
     </g>
     <g id="line2d_22">
      <g>
       <use xlink:href="#m18839592bb" x="90" y="218.16" style="stroke: #000000; stroke-width: 0.8"/>
      </g>
     </g>
     <g id="text_12">
      <!-- 0 -->
      <g transform="translate(76.6375 221.959219) scale(0.1 -0.1)">
       <use xlink:href="#DejaVuSans-30"/>
      </g>
     </g>
    </g>
    <g id="ytick_5">
     <g id="line2d_23">
      <path d="M 90 162.72 
L 648 162.72 
" clip-path="url(#pd2437e1ab6)" style="fill: none; stroke: #b0b0b0; stroke-width: 0.8; stroke-linecap: square"/>
     </g>
     <g id="line2d_24">
      <g>
       <use xlink:href="#m18839592bb" x="90" y="162.72" style="stroke: #000000; stroke-width: 0.8"/>
      </g>
     </g>
     <g id="text_13">
      <!-- 2 -->
      <g transform="translate(76.6375 166.519219) scale(0.1 -0.1)">
       <use xlink:href="#DejaVuSans-32"/>
      </g>
     </g>
    </g>
    <g id="ytick_6">
     <g id="line2d_25">
      <path d="M 90 107.28 
L 648 107.28 
" clip-path="url(#pd2437e1ab6)" style="fill: none; stroke: #b0b0b0; stroke-width: 0.8; stroke-linecap: square"/>
     </g>
     <g id="line2d_26">
      <g>
       <use xlink:href="#m18839592bb" x="90" y="107.28" style="stroke: #000000; stroke-width: 0.8"/>
      </g>
     </g>
     <g id="text_14">
      <!-- 4 -->
      <g transform="translate(76.6375 111.079219) scale(0.1 -0.1)">
       <use xlink:href="#DejaVuSans-34"/>
      </g>
     </g>
    </g>
    <g id="ytick_7">
     <g id="line2d_27">
      <path d="M 90 51.84 
L 648 51.84 
" clip-path="url(#pd2437e1ab6)" style="fill: none; stroke: #b0b0b0; stroke-width: 0.8; stroke-linecap: square"/>
     </g>
     <g id="line2d_28">
      <g>
       <use xlink:href="#m18839592bb" x="90" y="51.84" style="stroke: #000000; stroke-width: 0.8"/>
      </g>
     </g>
     <g id="text_15">
      <!-- 6 -->
      <g transform="translate(76.6375 55.639219) scale(0.1 -0.1)">
       <use xlink:href="#DejaVuSans-36"/>
      </g>
     </g>
    </g>
    <g id="text_16">
     <!-- $y$ -->
     <g transform="translate(62.157812 221.16) rotate(-90) scale(0.1 -0.1)">
      <defs>
       <path id="DejaVuSans-Oblique-79" d="M 1588 -325 
Q 1188 -997 936 -1164 
Q 684 -1331 294 -1331 
L -159 -1331 
L -63 -850 
L 269 -850 
Q 509 -850 678 -719 
Q 847 -588 1056 -206 
L 1234 128 
L 459 3500 
L 1069 3500 
L 1650 819 
L 3256 3500 
L 3859 3500 
L 1588 -325 
z
" transform="scale(0.015625)"/>
      </defs>
      <use xlink:href="#DejaVuSans-Oblique-79" transform="translate(0 0.3125)"/>
     </g>
    </g>
   </g>
   <g id="line2d_29">
    <path d="M 90 218.16 
L 95.593985 223.036306 
L 99.789474 226.476436 
L 103.984962 229.678226 
L 108.180451 232.60752 
L 112.37594 235.241211 
L 116.571429 237.566231 
L 120.766917 239.578381 
L 124.962406 241.281093 
L 129.157895 242.684175 
L 133.353383 243.802584 
L 137.548872 244.655268 
L 141.744361 245.264096 
L 145.93985 245.652903 
L 150.135338 245.846648 
L 155.729323 245.845378 
L 161.323308 245.601806 
L 168.315789 245.042915 
L 176.706767 244.13267 
L 203.278195 241.042918 
L 211.669173 240.353577 
L 220.06015 239.906447 
L 227.052632 239.740243 
L 234.045113 239.769718 
L 241.037594 239.993626 
L 249.428571 240.504749 
L 257.819549 241.247872 
L 267.609023 242.33502 
L 291.383459 245.10885 
L 298.37594 245.643526 
L 303.969925 245.859988 
L 309.56391 245.826827 
L 313.759398 245.60233 
L 317.954887 245.178566 
L 322.150376 244.530709 
L 326.345865 243.635189 
L 330.541353 242.470556 
L 334.736842 241.01845 
L 338.932331 239.26469 
L 343.12782 237.200443 
L 347.323308 234.823461 
L 351.518797 232.139338 
L 355.714286 229.162737 
L 359.909774 225.91854 
L 365.503759 221.240761 
L 372.496241 215.001383 
L 383.684211 204.90403 
L 387.879699 201.379056 
L 392.075188 198.160819 
L 394.87218 196.241327 
L 397.669173 194.541846 
L 400.466165 193.095427 
L 403.263158 191.933902 
L 406.06015 191.087166 
L 408.857143 190.58241 
L 411.654135 190.44333 
L 414.451128 190.689306 
L 417.24812 191.334591 
L 420.045113 192.387512 
L 422.842105 193.849721 
L 425.639098 195.71551 
L 428.43609 197.971227 
L 431.233083 200.59481 
L 434.030075 203.555479 
L 436.827068 206.813609 
L 441.022556 212.150363 
L 446.616541 219.786266 
L 453.609023 229.347083 
L 456.406015 232.91438 
L 459.203008 236.206453 
L 462 239.138565 
L 464.796992 241.629575 
L 467.593985 243.604428 
L 468.992481 244.377136 
L 470.390977 244.996721 
L 471.789474 245.456654 
L 473.18797 245.751265 
L 474.586466 245.875813 
L 475.984962 245.826561 
L 477.383459 245.600838 
L 478.781955 245.197102 
L 480.180451 244.614995 
L 481.578947 243.85539 
L 482.977444 242.920433 
L 484.37594 241.813576 
L 485.774436 240.539598 
L 488.571429 237.516111 
L 491.368421 233.915024 
L 494.165414 229.822379 
L 496.962406 225.343993 
L 501.157895 218.177653 
L 506.75188 208.540754 
L 509.548872 204.036482 
L 512.345865 199.951876 
L 515.142857 196.437769 
L 516.541353 194.938502 
L 517.93985 193.632367 
L 519.338346 192.533675 
L 520.736842 191.655198 
L 522.135338 191.008003 
L 523.533835 190.601281 
L 524.932331 190.442204 
L 526.330827 190.535782 
L 527.729323 190.884744 
L 529.12782 191.489437 
L 530.526316 192.347743 
L 531.924812 193.455023 
L 533.323308 194.804078 
L 534.721805 196.385144 
L 536.120301 198.185905 
L 538.917293 202.384827 
L 541.714286 207.253858 
L 544.511278 212.611275 
L 554.300752 231.997145 
L 557.097744 236.720395 
L 558.496241 238.797681 
L 559.894737 240.649898 
L 561.293233 242.252898 
L 562.691729 243.584948 
L 564.090226 244.627059 
L 565.488722 245.363303 
L 566.887218 245.781096 
L 568.285714 245.871453 
L 569.684211 245.629202 
L 571.082707 245.053164 
L 572.481203 244.146278 
L 573.879699 242.915686 
L 575.278195 241.372761 
L 576.676692 239.533077 
L 578.075188 237.416328 
L 579.473684 235.046186 
L 582.270677 229.659023 
L 585.067669 223.63137 
L 593.458647 204.885495 
L 596.255639 199.557314 
L 597.654135 197.252166 
L 599.052632 195.234856 
L 600.451128 193.537587 
L 601.849624 192.188514 
L 603.24812 191.21121 
L 604.646617 190.624197 
L 606.045113 190.440533 
L 607.443609 190.667465 
L 608.842105 191.306175 
L 610.240602 192.351593 
L 611.639098 193.792323 
L 613.037594 195.610653 
L 614.43609 197.782672 
L 615.834586 200.278491 
L 618.631579 206.094131 
L 621.428571 212.713777 
L 628.421053 230.007686 
L 631.218045 236.029143 
L 632.616541 238.62811 
L 634.015038 240.888102 
L 635.413534 242.766822 
L 636.81203 244.227865 
L 638.210526 245.241504 
L 639.609023 245.785378 
L 641.007519 245.845077 
L 642.406015 245.414585 
L 643.804511 244.496595 
L 645.203008 243.102664 
L 646.601504 241.253215 
L 648 238.977366 
L 648 238.977366 
" clip-path="url(#pd2437e1ab6)" style="fill: none; stroke: #2ecc71; stroke-width: 1.5; stroke-linecap: square"/>
   </g>
   <g id="line2d_30">
    <path d="M 90 301.32 
L 91.398496 300.403394 
L 92.796992 299.327763 
L 95.593985 296.740447 
L 98.390977 293.639807 
L 101.18797 290.106291 
L 103.984962 286.217936 
L 108.180451 279.882415 
L 113.774436 270.85479 
L 124.962406 252.535918 
L 129.157895 246.043077 
L 133.353383 239.930138 
L 137.548872 234.273333 
L 141.744361 229.126404 
L 144.541353 225.995816 
L 147.338346 223.112867 
L 150.135338 220.480159 
L 152.932331 218.097597 
L 155.729323 215.962735 
L 158.526316 214.071101 
L 161.323308 212.416508 
L 164.120301 210.991341 
L 166.917293 209.786828 
L 169.714286 208.793282 
L 172.511278 208.000322 
L 175.308271 207.397074 
L 178.105263 206.972342 
L 180.902256 206.714762 
L 185.097744 206.616877 
L 189.293233 206.831362 
L 193.488722 207.32113 
L 197.684211 208.050546 
L 201.879699 208.985704 
L 207.473684 210.497509 
L 213.067669 212.247457 
L 220.06015 214.670334 
L 232.646617 219.33665 
L 242.43609 222.887219 
L 249.428571 225.190539 
L 255.022556 226.799651 
L 259.218045 227.825546 
L 263.413534 228.661956 
L 267.609023 229.275899 
L 271.804511 229.632579 
L 276 229.69559 
L 278.796992 229.555889 
L 281.593985 229.257591 
L 284.390977 228.789291 
L 287.18797 228.139655 
L 289.984962 227.297552 
L 292.781955 226.252213 
L 295.578947 224.993413 
L 298.37594 223.511672 
L 301.172932 221.798481 
L 303.969925 219.846558 
L 306.766917 217.650117 
L 309.56391 215.205162 
L 312.360902 212.509803 
L 315.157895 209.564588 
L 317.954887 206.372845 
L 320.75188 202.941042 
L 324.947368 197.366056 
L 329.142857 191.324483 
L 333.338346 184.888639 
L 338.932331 175.865143 
L 350.120301 157.538076 
L 354.315789 151.120757 
L 357.112782 147.155513 
L 359.909774 143.526087 
L 362.706767 140.309763 
L 365.503759 137.586482 
L 366.902256 136.435184 
L 368.300752 135.437785 
L 369.699248 134.604525 
L 371.097744 133.945578 
L 372.496241 133.471002 
L 373.894737 133.19069 
L 375.293233 133.114312 
L 376.691729 133.25126 
L 378.090226 133.610584 
L 379.488722 134.200933 
L 380.887218 135.030488 
L 382.285714 136.106895 
L 383.684211 137.437198 
L 385.082707 139.027765 
L 386.481203 140.884219 
L 387.879699 143.011365 
L 389.278195 145.413117 
L 390.676692 148.092424 
L 392.075188 151.051198 
L 394.87218 157.809169 
L 397.669173 165.678863 
L 400.466165 174.631078 
L 403.263158 184.613606 
L 406.06015 195.549545 
L 408.857143 207.33597 
L 413.052632 226.318846 
L 418.646617 253.167223 
L 425.639098 286.778567 
L 428.43609 299.424528 
L 431.233083 311.193245 
L 434.030075 321.791631 
L 435.428571 326.55991 
L 436.827068 330.925671 
L 438.225564 334.853225 
L 439.62406 338.307792 
L 441.022556 341.255765 
L 442.421053 343.664993 
L 443.819549 345.505065 
L 445.218045 346.7476 
L 446.616541 347.366541 
L 448.015038 347.338449 
L 449.413534 346.642798 
L 450.81203 345.262265 
L 452.210526 343.183014 
L 453.609023 340.39497 
L 455.007519 336.892086 
L 456.406015 332.672588 
L 457.804511 327.73921 
L 459.203008 322.099405 
L 460.601504 315.765529 
L 462 308.755006 
L 463.398496 301.090453 
L 466.195489 283.916263 
L 468.992481 264.530595 
L 471.789474 243.306431 
L 475.984962 209.040552 
L 484.37594 138.936851 
L 487.172932 117.538841 
L 489.969925 98.304467 
L 491.368421 89.71831 
L 492.766917 81.93263 
L 494.165414 75.028304 
L 495.56391 69.082027 
L 496.962406 64.165449 
L 498.360902 60.344323 
L 499.759398 57.677654 
L 501.157895 56.216875 
L 502.556391 56.005045 
L 503.954887 57.076083 
L 505.353383 59.454056 
L 506.75188 63.152522 
L 508.150376 68.173933 
L 509.548872 74.509134 
L 510.947368 82.136931 
L 512.345865 91.023771 
L 513.744361 101.123525 
L 515.142857 112.377381 
L 516.541353 124.713871 
L 519.338346 152.286651 
L 522.135338 183.026263 
L 526.330827 232.857183 
L 531.924812 299.92716 
L 534.721805 330.756219 
L 537.518797 357.978375 
L 538.917293 369.830838 
L 540.315789 380.307959 
L 541.714286 389.26952 
L 543.112782 396.587252 
L 544.511278 402.146757 
L 545.909774 405.849351 
L 547.308271 407.613818 
L 548.706767 407.378026 
L 550.105263 405.100399 
L 551.503759 400.761206 
L 552.902256 394.363633 
L 554.300752 385.934641 
L 555.699248 375.525554 
L 557.097744 363.212376 
L 558.496241 349.095812 
L 559.894737 333.300979 
L 562.691729 297.294991 
L 565.488722 256.651798 
L 569.684211 190.942374 
L 573.879699 125.791108 
L 576.676692 86.367905 
L 578.075188 68.687099 
L 579.473684 52.708515 
L 580.87218 38.675191 
L 582.270677 26.810904 
L 583.669173 17.316392 
L 585.067669 10.365744 
L 586.466165 6.103011 
L 587.864662 4.639117 
L 589.263158 6.049116 
L 590.661654 10.36986 
L 592.06015 17.598137 
L 593.458647 27.689322 
L 594.857143 40.556595 
L 596.255639 56.070765 
L 597.654135 74.060723 
L 599.052632 94.31456 
L 601.849624 140.573672 
L 604.646617 192.421786 
L 611.639098 326.754775 
L 614.43609 373.729054 
L 615.834586 394.140475 
L 617.233083 412.009221 
L 618.631579 427.004206 
L 619.340471 433 
M 628.436138 433 
L 629.819549 418.962961 
L 631.218045 401.237977 
L 632.616541 380.219025 
L 634.015038 356.210182 
L 635.413534 329.575267 
L 638.210526 270.152216 
L 646.601504 80.623873 
L 648 53.424188 
L 648 53.424188 
" clip-path="url(#pd2437e1ab6)" style="fill: none; stroke-dasharray: 5.55,2.4; stroke-dashoffset: 0; stroke: #2980b9; stroke-width: 1.5"/>
   </g>
   <g id="patch_3">
    <path d="M 90 384.48 
L 90 51.84 
" style="fill: none; stroke: #000000; stroke-width: 0.8; stroke-linejoin: miter; stroke-linecap: square"/>
   </g>
   <g id="patch_4">
    <path d="M 648 384.48 
L 648 51.84 
" style="fill: none; stroke: #000000; stroke-width: 0.8; stroke-linejoin: miter; stroke-linecap: square"/>
   </g>
   <g id="patch_5">
    <path d="M 90 384.48 
L 648 384.48 
" style="fill: none; stroke: #000000; stroke-width: 0.8; stroke-linejoin: miter; stroke-linecap: square"/>
   </g>
   <g id="patch_6">
    <path d="M 90 51.84 
L 648 51.84 
" style="fill: none; stroke: #000000; stroke-width: 0.8; stroke-linejoin: miter; stroke-linecap: square"/>
   </g>
   <g id="text_17">
    <!-- Derivada - Ejercicio 36 -->
    <g transform="translate(301.235625 45.84) scale(0.12 -0.12)">
     <defs>
      <path id="DejaVuSans-44" d="M 1259 4147 
L 1259 519 
L 2022 519 
Q 2988 519 3436 956 
Q 3884 1394 3884 2338 
Q 3884 3275 3436 3711 
Q 2988 4147 2022 4147 
L 1259 4147 
z
M 628 4666 
L 1925 4666 
Q 3281 4666 3915 4102 
Q 4550 3538 4550 2338 
Q 4550 1131 3912 565 
Q 3275 0 1925 0 
L 628 0 
L 628 4666 
z
" transform="scale(0.015625)"/>
      <path id="DejaVuSans-65" d="M 3597 1894 
L 3597 1613 
L 953 1613 
Q 991 1019 1311 708 
Q 1631 397 2203 397 
Q 2534 397 2845 478 
Q 3156 559 3463 722 
L 3463 178 
Q 3153 47 2828 -22 
Q 2503 -91 2169 -91 
Q 1331 -91 842 396 
Q 353 884 353 1716 
Q 353 2575 817 3079 
Q 1281 3584 2069 3584 
Q 2775 3584 3186 3129 
Q 3597 2675 3597 1894 
z
M 3022 2063 
Q 3016 2534 2758 2815 
Q 2500 3097 2075 3097 
Q 1594 3097 1305 2825 
Q 1016 2553 972 2059 
L 3022 2063 
z
" transform="scale(0.015625)"/>
      <path id="DejaVuSans-72" d="M 2631 2963 
Q 2534 3019 2420 3045 
Q 2306 3072 2169 3072 
Q 1681 3072 1420 2755 
Q 1159 2438 1159 1844 
L 1159 0 
L 581 0 
L 581 3500 
L 1159 3500 
L 1159 2956 
Q 1341 3275 1631 3429 
Q 1922 3584 2338 3584 
Q 2397 3584 2469 3576 
Q 2541 3569 2628 3553 
L 2631 2963 
z
" transform="scale(0.015625)"/>
      <path id="DejaVuSans-69" d="M 603 3500 
L 1178 3500 
L 1178 0 
L 603 0 
L 603 3500 
z
M 603 4863 
L 1178 4863 
L 1178 4134 
L 603 4134 
L 603 4863 
z
" transform="scale(0.015625)"/>
      <path id="DejaVuSans-76" d="M 191 3500 
L 800 3500 
L 1894 563 
L 2988 3500 
L 3597 3500 
L 2284 0 
L 1503 0 
L 191 3500 
z
" transform="scale(0.015625)"/>
      <path id="DejaVuSans-61" d="M 2194 1759 
Q 1497 1759 1228 1600 
Q 959 1441 959 1056 
Q 959 750 1161 570 
Q 1363 391 1709 391 
Q 2188 391 2477 730 
Q 2766 1069 2766 1631 
L 2766 1759 
L 2194 1759 
z
M 3341 1997 
L 3341 0 
L 2766 0 
L 2766 531 
Q 2569 213 2275 61 
Q 1981 -91 1556 -91 
Q 1019 -91 701 211 
Q 384 513 384 1019 
Q 384 1609 779 1909 
Q 1175 2209 1959 2209 
L 2766 2209 
L 2766 2266 
Q 2766 2663 2505 2880 
Q 2244 3097 1772 3097 
Q 1472 3097 1187 3025 
Q 903 2953 641 2809 
L 641 3341 
Q 956 3463 1253 3523 
Q 1550 3584 1831 3584 
Q 2591 3584 2966 3190 
Q 3341 2797 3341 1997 
z
" transform="scale(0.015625)"/>
      <path id="DejaVuSans-64" d="M 2906 2969 
L 2906 4863 
L 3481 4863 
L 3481 0 
L 2906 0 
L 2906 525 
Q 2725 213 2448 61 
Q 2172 -91 1784 -91 
Q 1150 -91 751 415 
Q 353 922 353 1747 
Q 353 2572 751 3078 
Q 1150 3584 1784 3584 
Q 2172 3584 2448 3432 
Q 2725 3281 2906 2969 
z
M 947 1747 
Q 947 1113 1208 752 
Q 1469 391 1925 391 
Q 2381 391 2643 752 
Q 2906 1113 2906 1747 
Q 2906 2381 2643 2742 
Q 2381 3103 1925 3103 
Q 1469 3103 1208 2742 
Q 947 2381 947 1747 
z
" transform="scale(0.015625)"/>
      <path id="DejaVuSans-20" transform="scale(0.015625)"/>
      <path id="DejaVuSans-2d" d="M 313 2009 
L 1997 2009 
L 1997 1497 
L 313 1497 
L 313 2009 
z
" transform="scale(0.015625)"/>
      <path id="DejaVuSans-45" d="M 628 4666 
L 3578 4666 
L 3578 4134 
L 1259 4134 
L 1259 2753 
L 3481 2753 
L 3481 2222 
L 1259 2222 
L 1259 531 
L 3634 531 
L 3634 0 
L 628 0 
L 628 4666 
z
" transform="scale(0.015625)"/>
      <path id="DejaVuSans-6a" d="M 603 3500 
L 1178 3500 
L 1178 -63 
Q 1178 -731 923 -1031 
Q 669 -1331 103 -1331 
L -116 -1331 
L -116 -844 
L 38 -844 
Q 366 -844 484 -692 
Q 603 -541 603 -63 
L 603 3500 
z
M 603 4863 
L 1178 4863 
L 1178 4134 
L 603 4134 
L 603 4863 
z
" transform="scale(0.015625)"/>
      <path id="DejaVuSans-63" d="M 3122 3366 
L 3122 2828 
Q 2878 2963 2633 3030 
Q 2388 3097 2138 3097 
Q 1578 3097 1268 2742 
Q 959 2388 959 1747 
Q 959 1106 1268 751 
Q 1578 397 2138 397 
Q 2388 397 2633 464 
Q 2878 531 3122 666 
L 3122 134 
Q 2881 22 2623 -34 
Q 2366 -91 2075 -91 
Q 1284 -91 818 406 
Q 353 903 353 1747 
Q 353 2603 823 3093 
Q 1294 3584 2113 3584 
Q 2378 3584 2631 3529 
Q 2884 3475 3122 3366 
z
" transform="scale(0.015625)"/>
      <path id="DejaVuSans-6f" d="M 1959 3097 
Q 1497 3097 1228 2736 
Q 959 2375 959 1747 
Q 959 1119 1226 758 
Q 1494 397 1959 397 
Q 2419 397 2687 759 
Q 2956 1122 2956 1747 
Q 2956 2369 2687 2733 
Q 2419 3097 1959 3097 
z
M 1959 3584 
Q 2709 3584 3137 3096 
Q 3566 2609 3566 1747 
Q 3566 888 3137 398 
Q 2709 -91 1959 -91 
Q 1206 -91 779 398 
Q 353 888 353 1747 
Q 353 2609 779 3096 
Q 1206 3584 1959 3584 
z
" transform="scale(0.015625)"/>
     </defs>
     <use xlink:href="#DejaVuSans-44"/>
     <use xlink:href="#DejaVuSans-65" x="77.001953"/>
     <use xlink:href="#DejaVuSans-72" x="138.525391"/>
     <use xlink:href="#DejaVuSans-69" x="179.638672"/>
     <use xlink:href="#DejaVuSans-76" x="207.421875"/>
     <use xlink:href="#DejaVuSans-61" x="266.601562"/>
     <use xlink:href="#DejaVuSans-64" x="327.880859"/>
     <use xlink:href="#DejaVuSans-61" x="391.357422"/>
     <use xlink:href="#DejaVuSans-20" x="452.636719"/>
     <use xlink:href="#DejaVuSans-2d" x="484.423828"/>
     <use xlink:href="#DejaVuSans-20" x="520.507812"/>
     <use xlink:href="#DejaVuSans-45" x="552.294922"/>
     <use xlink:href="#DejaVuSans-6a" x="615.478516"/>
     <use xlink:href="#DejaVuSans-65" x="643.261719"/>
     <use xlink:href="#DejaVuSans-72" x="704.785156"/>
     <use xlink:href="#DejaVuSans-63" x="743.648438"/>
     <use xlink:href="#DejaVuSans-69" x="798.628906"/>
     <use xlink:href="#DejaVuSans-63" x="826.412109"/>
     <use xlink:href="#DejaVuSans-69" x="881.392578"/>
     <use xlink:href="#DejaVuSans-6f" x="909.175781"/>
     <use xlink:href="#DejaVuSans-20" x="970.357422"/>
     <use xlink:href="#DejaVuSans-33" x="1002.144531"/>
     <use xlink:href="#DejaVuSans-36" x="1065.767578"/>
    </g>
   </g>
   <g id="legend_1">
    <g id="patch_7">
     <path d="M 97 95.34 
L 187.3 95.34 
Q 189.3 95.34 189.3 93.34 
L 189.3 58.84 
Q 189.3 56.84 187.3 56.84 
L 97 56.84 
Q 95 56.84 95 58.84 
L 95 93.34 
Q 95 95.34 97 95.34 
z
" style="fill: #ffffff; opacity: 0.8; stroke: #cccccc; stroke-linejoin: miter"/>
    </g>
    <g id="line2d_31">
     <path d="M 99 65.34 
L 109 65.34 
L 119 65.34 
" style="fill: none; stroke: #2ecc71; stroke-width: 1.5; stroke-linecap: square"/>
    </g>
    <g id="text_18">
     <!-- Función $y$ -->
     <g transform="translate(127 68.84) scale(0.1 -0.1)">
      <defs>
       <path id="DejaVuSans-46" d="M 628 4666 
L 3309 4666 
L 3309 4134 
L 1259 4134 
L 1259 2759 
L 3109 2759 
L 3109 2228 
L 1259 2228 
L 1259 0 
L 628 0 
L 628 4666 
z
" transform="scale(0.015625)"/>
       <path id="DejaVuSans-75" d="M 544 1381 
L 544 3500 
L 1119 3500 
L 1119 1403 
Q 1119 906 1312 657 
Q 1506 409 1894 409 
Q 2359 409 2629 706 
Q 2900 1003 2900 1516 
L 2900 3500 
L 3475 3500 
L 3475 0 
L 2900 0 
L 2900 538 
Q 2691 219 2414 64 
Q 2138 -91 1772 -91 
Q 1169 -91 856 284 
Q 544 659 544 1381 
z
M 1991 3584 
L 1991 3584 
z
" transform="scale(0.015625)"/>
       <path id="DejaVuSans-6e" d="M 3513 2113 
L 3513 0 
L 2938 0 
L 2938 2094 
Q 2938 2591 2744 2837 
Q 2550 3084 2163 3084 
Q 1697 3084 1428 2787 
Q 1159 2491 1159 1978 
L 1159 0 
L 581 0 
L 581 3500 
L 1159 3500 
L 1159 2956 
Q 1366 3272 1645 3428 
Q 1925 3584 2291 3584 
Q 2894 3584 3203 3211 
Q 3513 2838 3513 2113 
z
" transform="scale(0.015625)"/>
       <path id="DejaVuSans-f3" d="M 1959 3097 
Q 1497 3097 1228 2736 
Q 959 2375 959 1747 
Q 959 1119 1226 758 
Q 1494 397 1959 397 
Q 2419 397 2687 759 
Q 2956 1122 2956 1747 
Q 2956 2369 2687 2733 
Q 2419 3097 1959 3097 
z
M 1959 3584 
Q 2709 3584 3137 3096 
Q 3566 2609 3566 1747 
Q 3566 888 3137 398 
Q 2709 -91 1959 -91 
Q 1206 -91 779 398 
Q 353 888 353 1747 
Q 353 2609 779 3096 
Q 1206 3584 1959 3584 
z
M 2394 5119 
L 3016 5119 
L 1998 3944 
L 1519 3944 
L 2394 5119 
z
" transform="scale(0.015625)"/>
      </defs>
      <use xlink:href="#DejaVuSans-46" transform="translate(0 0.015625)"/>
      <use xlink:href="#DejaVuSans-75" transform="translate(57.519531 0.015625)"/>
      <use xlink:href="#DejaVuSans-6e" transform="translate(120.898438 0.015625)"/>
      <use xlink:href="#DejaVuSans-63" transform="translate(184.277344 0.015625)"/>
      <use xlink:href="#DejaVuSans-69" transform="translate(239.257812 0.015625)"/>
      <use xlink:href="#DejaVuSans-f3" transform="translate(267.041016 0.015625)"/>
      <use xlink:href="#DejaVuSans-6e" transform="translate(328.222656 0.015625)"/>
      <use xlink:href="#DejaVuSans-20" transform="translate(391.601562 0.015625)"/>
      <use xlink:href="#DejaVuSans-Oblique-79" transform="translate(423.388672 0.015625)"/>
     </g>
    </g>
    <g id="line2d_32">
     <path d="M 99 83.64 
L 109 83.64 
L 119 83.64 
" style="fill: none; stroke-dasharray: 5.55,2.4; stroke-dashoffset: 0; stroke: #2980b9; stroke-width: 1.5"/>
    </g>
    <g id="text_19">
     <!-- Derivada $\frac{dy}{dx}$ -->
     <g transform="translate(127 87.14) scale(0.1 -0.1)">
      <defs>
       <path id="DejaVuSans-Oblique-64" d="M 2675 525 
Q 2444 222 2128 65 
Q 1813 -91 1428 -91 
Q 903 -91 598 267 
Q 294 625 294 1247 
Q 294 1766 478 2236 
Q 663 2706 1013 3078 
Q 1244 3325 1534 3454 
Q 1825 3584 2144 3584 
Q 2481 3584 2739 3421 
Q 2997 3259 3138 2956 
L 3513 4863 
L 4091 4863 
L 3144 0 
L 2566 0 
L 2675 525 
z
M 891 1350 
Q 891 897 1095 644 
Q 1300 391 1663 391 
Q 1931 391 2161 520 
Q 2391 650 2566 903 
Q 2750 1166 2856 1509 
Q 2963 1853 2963 2188 
Q 2963 2622 2758 2865 
Q 2553 3109 2194 3109 
Q 1922 3109 1687 2981 
Q 1453 2853 1288 2613 
Q 1106 2353 998 2009 
Q 891 1666 891 1350 
z
" transform="scale(0.015625)"/>
      </defs>
      <use xlink:href="#DejaVuSans-44" transform="translate(0 0.45625)"/>
      <use xlink:href="#DejaVuSans-65" transform="translate(77.001953 0.45625)"/>
      <use xlink:href="#DejaVuSans-72" transform="translate(138.525391 0.45625)"/>
      <use xlink:href="#DejaVuSans-69" transform="translate(179.638672 0.45625)"/>
      <use xlink:href="#DejaVuSans-76" transform="translate(207.421875 0.45625)"/>
      <use xlink:href="#DejaVuSans-61" transform="translate(266.601562 0.45625)"/>
      <use xlink:href="#DejaVuSans-64" transform="translate(327.880859 0.45625)"/>
      <use xlink:href="#DejaVuSans-61" transform="translate(391.357422 0.45625)"/>
      <use xlink:href="#DejaVuSans-20" transform="translate(452.636719 0.45625)"/>
      <use xlink:href="#DejaVuSans-Oblique-64" transform="translate(484.423828 58.810938) scale(0.7)"/>
      <use xlink:href="#DejaVuSans-Oblique-79" transform="translate(528.857422 58.810938) scale(0.7)"/>
      <use xlink:href="#DejaVuSans-Oblique-64" transform="translate(484.423828 -40.185937) scale(0.7)"/>
      <use xlink:href="#DejaVuSans-Oblique-78" transform="translate(528.857422 -40.185937) scale(0.7)"/>
      <path d="M 484.423828 19.253125 
L 484.423828 25.503125 
L 570.283203 25.503125 
L 570.283203 19.253125 
L 484.423828 19.253125 
z
"/>
     </g>
    </g>
   </g>
  </g>
  <g id="text_20">
   <!-- Cursland -->
   <g transform="translate(333.460312 17.758125) scale(0.12 -0.12)">
    <defs>
     <path id="DejaVuSans-43" d="M 4122 4306 
L 4122 3641 
Q 3803 3938 3442 4084 
Q 3081 4231 2675 4231 
Q 1875 4231 1450 3742 
Q 1025 3253 1025 2328 
Q 1025 1406 1450 917 
Q 1875 428 2675 428 
Q 3081 428 3442 575 
Q 3803 722 4122 1019 
L 4122 359 
Q 3791 134 3420 21 
Q 3050 -91 2638 -91 
Q 1578 -91 968 557 
Q 359 1206 359 2328 
Q 359 3453 968 4101 
Q 1578 4750 2638 4750 
Q 3056 4750 3426 4639 
Q 3797 4528 4122 4306 
z
" transform="scale(0.015625)"/>
     <path id="DejaVuSans-73" d="M 2834 3397 
L 2834 2853 
Q 2591 2978 2328 3040 
Q 2066 3103 1784 3103 
Q 1356 3103 1142 2972 
Q 928 2841 928 2578 
Q 928 2378 1081 2264 
Q 1234 2150 1697 2047 
L 1894 2003 
Q 2506 1872 2764 1633 
Q 3022 1394 3022 966 
Q 3022 478 2636 193 
Q 2250 -91 1575 -91 
Q 1294 -91 989 -36 
Q 684 19 347 128 
L 347 722 
Q 666 556 975 473 
Q 1284 391 1588 391 
Q 1994 391 2212 530 
Q 2431 669 2431 922 
Q 2431 1156 2273 1281 
Q 2116 1406 1581 1522 
L 1381 1569 
Q 847 1681 609 1914 
Q 372 2147 372 2553 
Q 372 3047 722 3315 
Q 1072 3584 1716 3584 
Q 2034 3584 2315 3537 
Q 2597 3491 2834 3397 
z
" transform="scale(0.015625)"/>
     <path id="DejaVuSans-6c" d="M 603 4863 
L 1178 4863 
L 1178 0 
L 603 0 
L 603 4863 
z
" transform="scale(0.015625)"/>
    </defs>
    <use xlink:href="#DejaVuSans-43"/>
    <use xlink:href="#DejaVuSans-75" x="69.824219"/>
    <use xlink:href="#DejaVuSans-72" x="133.203125"/>
    <use xlink:href="#DejaVuSans-73" x="174.316406"/>
    <use xlink:href="#DejaVuSans-6c" x="226.416016"/>
    <use xlink:href="#DejaVuSans-61" x="254.199219"/>
    <use xlink:href="#DejaVuSans-6e" x="315.478516"/>
    <use xlink:href="#DejaVuSans-64" x="378.857422"/>
   </g>
  </g>
 </g>
 <defs>
  <clipPath id="pd2437e1ab6">
   <rect x="90" y="51.84" width="558" height="332.64"/>
  </clipPath>
 </defs>
</svg>
