<?xml version="1.0" encoding="utf-8" standalone="no"?>
<!DOCTYPE svg PUBLIC "-//W3C//DTD SVG 1.1//EN"
  "http://www.w3.org/Graphics/SVG/1.1/DTD/svg11.dtd">
<svg xmlns:xlink="http://www.w3.org/1999/xlink" width="720pt" height="432pt" viewBox="0 0 720 432" xmlns="http://www.w3.org/2000/svg" version="1.1">
 <metadata>
  <rdf:RDF xmlns:dc="http://purl.org/dc/elements/1.1/" xmlns:cc="http://creativecommons.org/ns#" xmlns:rdf="http://www.w3.org/1999/02/22-rdf-syntax-ns#">
   <cc:Work>
    <dc:type rdf:resource="http://purl.org/dc/dcmitype/StillImage"/>
    <dc:date>2025-02-10T12:33:05.214306</dc:date>
    <dc:format>image/svg+xml</dc:format>
    <dc:creator>
     <cc:Agent>
      <dc:title>Matplotlib v3.8.2, https://matplotlib.org/</dc:title>
     </cc:Agent>
    </dc:creator>
   </cc:Work>
  </rdf:RDF>
 </metadata>
 <defs>
  <style type="text/css">*{stroke-linejoin: round; stroke-linecap: butt}</style>
 </defs>
 <g id="figure_1">
  <g id="patch_1">
   <path d="M 0 432 
L 720 432 
L 720 0 
L 0 0 
z
" style="fill: #ffffff"/>
  </g>
  <g id="axes_1">
   <g id="patch_2">
    <path d="M 90 384.48 
L 648 384.48 
L 648 51.84 
L 90 51.84 
z
" style="fill: #ffffff"/>
   </g>
   <g id="matplotlib.axis_1">
    <g id="xtick_1">
     <g id="line2d_1">
      <path d="M 90 384.48 
L 90 51.84 
" clip-path="url(#p3bfecec70b)" style="fill: none; stroke: #b0b0b0; stroke-width: 0.8; stroke-linecap: square"/>
     </g>
     <g id="line2d_2">
      <defs>
       <path id="mdf7da3532f" d="M 0 0 
L 0 3.5 
" style="stroke: #000000; stroke-width: 0.8"/>
      </defs>
      <g>
       <use xlink:href="#mdf7da3532f" x="90" y="384.48" style="stroke: #000000; stroke-width: 0.8"/>
      </g>
     </g>
     <g id="text_1">
      <!-- −3 -->
      <g transform="translate(82.628906 399.078438) scale(0.1 -0.1)">
       <defs>
        <path id="DejaVuSans-2212" d="M 678 2272 
L 4684 2272 
L 4684 1741 
L 678 1741 
L 678 2272 
z
" transform="scale(0.015625)"/>
        <path id="DejaVuSans-33" d="M 2597 2516 
Q 3050 2419 3304 2112 
Q 3559 1806 3559 1356 
Q 3559 666 3084 287 
Q 2609 -91 1734 -91 
Q 1441 -91 1130 -33 
Q 819 25 488 141 
L 488 750 
Q 750 597 1062 519 
Q 1375 441 1716 441 
Q 2309 441 2620 675 
Q 2931 909 2931 1356 
Q 2931 1769 2642 2001 
Q 2353 2234 1838 2234 
L 1294 2234 
L 1294 2753 
L 1863 2753 
Q 2328 2753 2575 2939 
Q 2822 3125 2822 3475 
Q 2822 3834 2567 4026 
Q 2313 4219 1838 4219 
Q 1578 4219 1281 4162 
Q 984 4106 628 3988 
L 628 4550 
Q 988 4650 1302 4700 
Q 1616 4750 1894 4750 
Q 2613 4750 3031 4423 
Q 3450 4097 3450 3541 
Q 3450 3153 3228 2886 
Q 3006 2619 2597 2516 
z
" transform="scale(0.015625)"/>
       </defs>
       <use xlink:href="#DejaVuSans-2212"/>
       <use xlink:href="#DejaVuSans-33" x="83.789062"/>
      </g>
     </g>
    </g>
    <g id="xtick_2">
     <g id="line2d_3">
      <path d="M 183 384.48 
L 183 51.84 
" clip-path="url(#p3bfecec70b)" style="fill: none; stroke: #b0b0b0; stroke-width: 0.8; stroke-linecap: square"/>
     </g>
     <g id="line2d_4">
      <g>
       <use xlink:href="#mdf7da3532f" x="183" y="384.48" style="stroke: #000000; stroke-width: 0.8"/>
      </g>
     </g>
     <g id="text_2">
      <!-- −2 -->
      <g transform="translate(175.628906 399.078438) scale(0.1 -0.1)">
       <defs>
        <path id="DejaVuSans-32" d="M 1228 531 
L 3431 531 
L 3431 0 
L 469 0 
L 469 531 
Q 828 903 1448 1529 
Q 2069 2156 2228 2338 
Q 2531 2678 2651 2914 
Q 2772 3150 2772 3378 
Q 2772 3750 2511 3984 
Q 2250 4219 1831 4219 
Q 1534 4219 1204 4116 
Q 875 4013 500 3803 
L 500 4441 
Q 881 4594 1212 4672 
Q 1544 4750 1819 4750 
Q 2544 4750 2975 4387 
Q 3406 4025 3406 3419 
Q 3406 3131 3298 2873 
Q 3191 2616 2906 2266 
Q 2828 2175 2409 1742 
Q 1991 1309 1228 531 
z
" transform="scale(0.015625)"/>
       </defs>
       <use xlink:href="#DejaVuSans-2212"/>
       <use xlink:href="#DejaVuSans-32" x="83.789062"/>
      </g>
     </g>
    </g>
    <g id="xtick_3">
     <g id="line2d_5">
      <path d="M 276 384.48 
L 276 51.84 
" clip-path="url(#p3bfecec70b)" style="fill: none; stroke: #b0b0b0; stroke-width: 0.8; stroke-linecap: square"/>
     </g>
     <g id="line2d_6">
      <g>
       <use xlink:href="#mdf7da3532f" x="276" y="384.48" style="stroke: #000000; stroke-width: 0.8"/>
      </g>
     </g>
     <g id="text_3">
      <!-- −1 -->
      <g transform="translate(268.628906 399.078438) scale(0.1 -0.1)">
       <defs>
        <path id="DejaVuSans-31" d="M 794 531 
L 1825 531 
L 1825 4091 
L 703 3866 
L 703 4441 
L 1819 4666 
L 2450 4666 
L 2450 531 
L 3481 531 
L 3481 0 
L 794 0 
L 794 531 
z
" transform="scale(0.015625)"/>
       </defs>
       <use xlink:href="#DejaVuSans-2212"/>
       <use xlink:href="#DejaVuSans-31" x="83.789062"/>
      </g>
     </g>
    </g>
    <g id="xtick_4">
     <g id="line2d_7">
      <path d="M 369 384.48 
L 369 51.84 
" clip-path="url(#p3bfecec70b)" style="fill: none; stroke: #b0b0b0; stroke-width: 0.8; stroke-linecap: square"/>
     </g>
     <g id="line2d_8">
      <g>
       <use xlink:href="#mdf7da3532f" x="369" y="384.48" style="stroke: #000000; stroke-width: 0.8"/>
      </g>
     </g>
     <g id="text_4">
      <!-- 0 -->
      <g transform="translate(365.81875 399.078438) scale(0.1 -0.1)">
       <defs>
        <path id="DejaVuSans-30" d="M 2034 4250 
Q 1547 4250 1301 3770 
Q 1056 3291 1056 2328 
Q 1056 1369 1301 889 
Q 1547 409 2034 409 
Q 2525 409 2770 889 
Q 3016 1369 3016 2328 
Q 3016 3291 2770 3770 
Q 2525 4250 2034 4250 
z
M 2034 4750 
Q 2819 4750 3233 4129 
Q 3647 3509 3647 2328 
Q 3647 1150 3233 529 
Q 2819 -91 2034 -91 
Q 1250 -91 836 529 
Q 422 1150 422 2328 
Q 422 3509 836 4129 
Q 1250 4750 2034 4750 
z
" transform="scale(0.015625)"/>
       </defs>
       <use xlink:href="#DejaVuSans-30"/>
      </g>
     </g>
    </g>
    <g id="xtick_5">
     <g id="line2d_9">
      <path d="M 462 384.48 
L 462 51.84 
" clip-path="url(#p3bfecec70b)" style="fill: none; stroke: #b0b0b0; stroke-width: 0.8; stroke-linecap: square"/>
     </g>
     <g id="line2d_10">
      <g>
       <use xlink:href="#mdf7da3532f" x="462" y="384.48" style="stroke: #000000; stroke-width: 0.8"/>
      </g>
     </g>
     <g id="text_5">
      <!-- 1 -->
      <g transform="translate(458.81875 399.078438) scale(0.1 -0.1)">
       <use xlink:href="#DejaVuSans-31"/>
      </g>
     </g>
    </g>
    <g id="xtick_6">
     <g id="line2d_11">
      <path d="M 555 384.48 
L 555 51.84 
" clip-path="url(#p3bfecec70b)" style="fill: none; stroke: #b0b0b0; stroke-width: 0.8; stroke-linecap: square"/>
     </g>
     <g id="line2d_12">
      <g>
       <use xlink:href="#mdf7da3532f" x="555" y="384.48" style="stroke: #000000; stroke-width: 0.8"/>
      </g>
     </g>
     <g id="text_6">
      <!-- 2 -->
      <g transform="translate(551.81875 399.078438) scale(0.1 -0.1)">
       <use xlink:href="#DejaVuSans-32"/>
      </g>
     </g>
    </g>
    <g id="xtick_7">
     <g id="line2d_13">
      <path d="M 648 384.48 
L 648 51.84 
" clip-path="url(#p3bfecec70b)" style="fill: none; stroke: #b0b0b0; stroke-width: 0.8; stroke-linecap: square"/>
     </g>
     <g id="line2d_14">
      <g>
       <use xlink:href="#mdf7da3532f" x="648" y="384.48" style="stroke: #000000; stroke-width: 0.8"/>
      </g>
     </g>
     <g id="text_7">
      <!-- 3 -->
      <g transform="translate(644.81875 399.078438) scale(0.1 -0.1)">
       <use xlink:href="#DejaVuSans-33"/>
      </g>
     </g>
    </g>
    <g id="text_8">
     <!-- $x$ -->
     <g transform="translate(366 412.756563) scale(0.1 -0.1)">
      <defs>
       <path id="DejaVuSans-Oblique-78" d="M 3841 3500 
L 2234 1784 
L 3219 0 
L 2559 0 
L 1819 1388 
L 531 0 
L -166 0 
L 1556 1844 
L 641 3500 
L 1300 3500 
L 1972 2234 
L 3144 3500 
L 3841 3500 
z
" transform="scale(0.015625)"/>
      </defs>
      <use xlink:href="#DejaVuSans-Oblique-78" transform="translate(0 0.3125)"/>
     </g>
    </g>
   </g>
   <g id="matplotlib.axis_2">
    <g id="ytick_1">
     <g id="line2d_15">
      <path d="M 90 384.48 
L 648 384.48 
" clip-path="url(#p3bfecec70b)" style="fill: none; stroke: #b0b0b0; stroke-width: 0.8; stroke-linecap: square"/>
     </g>
     <g id="line2d_16">
      <defs>
       <path id="mcfc37d5f21" d="M 0 0 
L -3.5 0 
" style="stroke: #000000; stroke-width: 0.8"/>
      </defs>
      <g>
       <use xlink:href="#mcfc37d5f21" x="90" y="384.48" style="stroke: #000000; stroke-width: 0.8"/>
      </g>
     </g>
     <g id="text_9">
      <!-- −6 -->
      <g transform="translate(68.257812 388.279219) scale(0.1 -0.1)">
       <defs>
        <path id="DejaVuSans-36" d="M 2113 2584 
Q 1688 2584 1439 2293 
Q 1191 2003 1191 1497 
Q 1191 994 1439 701 
Q 1688 409 2113 409 
Q 2538 409 2786 701 
Q 3034 994 3034 1497 
Q 3034 2003 2786 2293 
Q 2538 2584 2113 2584 
z
M 3366 4563 
L 3366 3988 
Q 3128 4100 2886 4159 
Q 2644 4219 2406 4219 
Q 1781 4219 1451 3797 
Q 1122 3375 1075 2522 
Q 1259 2794 1537 2939 
Q 1816 3084 2150 3084 
Q 2853 3084 3261 2657 
Q 3669 2231 3669 1497 
Q 3669 778 3244 343 
Q 2819 -91 2113 -91 
Q 1303 -91 875 529 
Q 447 1150 447 2328 
Q 447 3434 972 4092 
Q 1497 4750 2381 4750 
Q 2619 4750 2861 4703 
Q 3103 4656 3366 4563 
z
" transform="scale(0.015625)"/>
       </defs>
       <use xlink:href="#DejaVuSans-2212"/>
       <use xlink:href="#DejaVuSans-36" x="83.789062"/>
      </g>
     </g>
    </g>
    <g id="ytick_2">
     <g id="line2d_17">
      <path d="M 90 329.04 
L 648 329.04 
" clip-path="url(#p3bfecec70b)" style="fill: none; stroke: #b0b0b0; stroke-width: 0.8; stroke-linecap: square"/>
     </g>
     <g id="line2d_18">
      <g>
       <use xlink:href="#mcfc37d5f21" x="90" y="329.04" style="stroke: #000000; stroke-width: 0.8"/>
      </g>
     </g>
     <g id="text_10">
      <!-- −4 -->
      <g transform="translate(68.257812 332.839219) scale(0.1 -0.1)">
       <defs>
        <path id="DejaVuSans-34" d="M 2419 4116 
L 825 1625 
L 2419 1625 
L 2419 4116 
z
M 2253 4666 
L 3047 4666 
L 3047 1625 
L 3713 1625 
L 3713 1100 
L 3047 1100 
L 3047 0 
L 2419 0 
L 2419 1100 
L 313 1100 
L 313 1709 
L 2253 4666 
z
" transform="scale(0.015625)"/>
       </defs>
       <use xlink:href="#DejaVuSans-2212"/>
       <use xlink:href="#DejaVuSans-34" x="83.789062"/>
      </g>
     </g>
    </g>
    <g id="ytick_3">
     <g id="line2d_19">
      <path d="M 90 273.6 
L 648 273.6 
" clip-path="url(#p3bfecec70b)" style="fill: none; stroke: #b0b0b0; stroke-width: 0.8; stroke-linecap: square"/>
     </g>
     <g id="line2d_20">
      <g>
       <use xlink:href="#mcfc37d5f21" x="90" y="273.6" style="stroke: #000000; stroke-width: 0.8"/>
      </g>
     </g>
     <g id="text_11">
      <!-- −2 -->
      <g transform="translate(68.257812 277.399219) scale(0.1 -0.1)">
       <use xlink:href="#DejaVuSans-2212"/>
       <use xlink:href="#DejaVuSans-32" x="83.789062"/>
      </g>
     </g>
    </g>
    <g id="ytick_4">
     <g id="line2d_21">
      <path d="M 90 218.16 
L 648 218.16 
" clip-path="url(#p3bfecec70b)" style="fill: none; stroke: #b0b0b0; stroke-width: 0.8; stroke-linecap: square"/>
     </g>
     <g id="line2d_22">
      <g>
       <use xlink:href="#mcfc37d5f21" x="90" y="218.16" style="stroke: #000000; stroke-width: 0.8"/>
      </g>
     </g>
     <g id="text_12">
      <!-- 0 -->
      <g transform="translate(76.6375 221.959219) scale(0.1 -0.1)">
       <use xlink:href="#DejaVuSans-30"/>
      </g>
     </g>
    </g>
    <g id="ytick_5">
     <g id="line2d_23">
      <path d="M 90 162.72 
L 648 162.72 
" clip-path="url(#p3bfecec70b)" style="fill: none; stroke: #b0b0b0; stroke-width: 0.8; stroke-linecap: square"/>
     </g>
     <g id="line2d_24">
      <g>
       <use xlink:href="#mcfc37d5f21" x="90" y="162.72" style="stroke: #000000; stroke-width: 0.8"/>
      </g>
     </g>
     <g id="text_13">
      <!-- 2 -->
      <g transform="translate(76.6375 166.519219) scale(0.1 -0.1)">
       <use xlink:href="#DejaVuSans-32"/>
      </g>
     </g>
    </g>
    <g id="ytick_6">
     <g id="line2d_25">
      <path d="M 90 107.28 
L 648 107.28 
" clip-path="url(#p3bfecec70b)" style="fill: none; stroke: #b0b0b0; stroke-width: 0.8; stroke-linecap: square"/>
     </g>
     <g id="line2d_26">
      <g>
       <use xlink:href="#mcfc37d5f21" x="90" y="107.28" style="stroke: #000000; stroke-width: 0.8"/>
      </g>
     </g>
     <g id="text_14">
      <!-- 4 -->
      <g transform="translate(76.6375 111.079219) scale(0.1 -0.1)">
       <use xlink:href="#DejaVuSans-34"/>
      </g>
     </g>
    </g>
    <g id="ytick_7">
     <g id="line2d_27">
      <path d="M 90 51.84 
L 648 51.84 
" clip-path="url(#p3bfecec70b)" style="fill: none; stroke: #b0b0b0; stroke-width: 0.8; stroke-linecap: square"/>
     </g>
     <g id="line2d_28">
      <g>
       <use xlink:href="#mcfc37d5f21" x="90" y="51.84" style="stroke: #000000; stroke-width: 0.8"/>
      </g>
     </g>
     <g id="text_15">
      <!-- 6 -->
      <g transform="translate(76.6375 55.639219) scale(0.1 -0.1)">
       <use xlink:href="#DejaVuSans-36"/>
      </g>
     </g>
    </g>
    <g id="text_16">
     <!-- $y$ -->
     <g transform="translate(62.157812 221.16) rotate(-90) scale(0.1 -0.1)">
      <defs>
       <path id="DejaVuSans-Oblique-79" d="M 1588 -325 
Q 1188 -997 936 -1164 
Q 684 -1331 294 -1331 
L -159 -1331 
L -63 -850 
L 269 -850 
Q 509 -850 678 -719 
Q 847 -588 1056 -206 
L 1234 128 
L 459 3500 
L 1069 3500 
L 1650 819 
L 3256 3500 
L 3859 3500 
L 1588 -325 
z
" transform="scale(0.015625)"/>
      </defs>
      <use xlink:href="#DejaVuSans-Oblique-79" transform="translate(0 0.3125)"/>
     </g>
    </g>
   </g>
   <g id="line2d_29">
    <path d="M 90 258.650439 
L 94.195489 150.563704 
L 95.593985 121.14073 
L 96.992481 98.633488 
L 98.390977 84.493767 
L 99.789474 79.562302 
L 101.18797 84.03271 
L 102.586466 97.461187 
L 103.984962 118.818788 
L 105.383459 146.580467 
L 108.180451 213.46158 
L 110.977444 280.86306 
L 112.37594 309.45739 
L 113.774436 332.284639 
L 115.172932 348.046912 
L 116.571429 355.908685 
L 117.969925 355.529935 
L 119.368421 347.067848 
L 120.766917 331.148787 
L 122.165414 308.813936 
L 123.56391 281.443362 
L 126.360902 218.249238 
L 129.157895 155.706056 
L 130.556391 128.929507 
L 131.954887 107.046853 
L 133.353383 91.12437 
L 134.75188 81.885908 
L 136.150376 79.688847 
L 137.548872 84.520436 
L 138.947368 96.013461 
L 140.345865 113.479216 
L 141.744361 135.955018 
L 143.142857 162.262915 
L 148.736842 278.509209 
L 150.135338 303.522718 
L 151.533835 324.557115 
L 152.932331 340.75522 
L 154.330827 351.50017 
L 155.729323 356.432191 
L 157.12782 355.453014 
L 158.526316 348.71857 
L 159.924812 336.621064 
L 161.323308 319.761942 
L 162.721805 298.91753 
L 164.120301 274.999321 
L 171.112782 145.205913 
L 172.511278 124.129532 
L 173.909774 106.595449 
L 175.308271 93.155685 
L 176.706767 84.196881 
L 178.105263 79.934397 
L 179.503759 80.413013 
L 180.902256 85.513724 
L 182.300752 94.965919 
L 183.699248 108.364114 
L 185.097744 125.188308 
L 186.496241 144.826949 
L 189.293233 189.791866 
L 193.488722 260.546502 
L 194.887218 282.211194 
L 196.285714 301.888204 
L 197.684211 319.07208 
L 199.082707 333.347587 
L 200.481203 344.396743 
L 201.879699 352.002511 
L 203.278195 356.049309 
L 204.676692 356.520568 
L 206.075188 353.493667 
L 207.473684 347.132597 
L 208.87218 337.678749 
L 210.270677 325.440265 
L 211.669173 310.78035 
L 213.067669 294.104968 
L 215.864662 256.470415 
L 221.458647 176.756638 
L 224.255639 141.403099 
L 225.654135 126.076216 
L 227.052632 112.666626 
L 228.451128 101.375396 
L 229.849624 92.352558 
L 231.24812 85.697299 
L 232.646617 81.459248 
L 234.045113 79.640719 
L 235.443609 80.199772 
L 236.842105 83.053956 
L 238.240602 88.084577 
L 239.639098 95.141355 
L 241.037594 104.047332 
L 242.43609 114.603893 
L 243.834586 126.595805 
L 246.631579 153.971004 
L 249.428571 184.300431 
L 255.022556 246.560056 
L 257.819549 275.283558 
L 260.616541 300.689059 
L 262.015038 311.850912 
L 263.413534 321.866459 
L 264.81203 330.67059 
L 266.210526 338.216857 
L 267.609023 344.476634 
L 269.007519 349.438087 
L 270.406015 353.104985 
L 271.804511 355.495387 
L 273.203008 356.640251 
L 274.601504 356.581983 
L 276 355.37296 
L 277.398496 353.074059 
L 278.796992 349.753201 
L 280.195489 345.483947 
L 281.593985 340.344148 
L 282.992481 334.414675 
L 284.390977 327.778225 
L 287.18797 312.71785 
L 289.984962 295.822041 
L 294.180451 268.398614 
L 302.571429 212.591985 
L 305.368421 195.208139 
L 308.165414 178.910057 
L 310.962406 163.874894 
L 313.759398 150.215535 
L 316.556391 137.988369 
L 319.353383 127.201641 
L 322.150376 117.823913 
L 324.947368 109.79226 
L 326.345865 106.254836 
L 327.744361 103.019921 
L 329.142857 100.074086 
L 330.541353 97.403228 
L 331.93985 94.992749 
L 333.338346 92.827712 
L 334.736842 90.892982 
L 336.135338 89.173356 
L 337.533835 87.653687 
L 338.932331 86.318981 
L 340.330827 85.154497 
L 341.729323 84.145831 
L 344.526316 82.540428 
L 347.323308 81.396768 
L 350.120301 80.617964 
L 352.917293 80.117429 
L 355.714286 79.819686 
L 359.909774 79.616926 
L 368.300752 79.560002 
L 379.488722 79.660898 
L 383.684211 79.947475 
L 386.481203 80.337898 
L 389.278195 80.967423 
L 392.075188 81.917166 
L 394.87218 83.278983 
L 396.270677 84.145831 
L 397.669173 85.154497 
L 399.067669 86.318981 
L 400.466165 87.653687 
L 401.864662 89.173356 
L 403.263158 90.892982 
L 404.661654 92.827712 
L 406.06015 94.992749 
L 407.458647 97.403228 
L 408.857143 100.074086 
L 410.255639 103.019921 
L 411.654135 106.254836 
L 413.052632 109.79226 
L 414.451128 113.644776 
L 417.24812 122.339939 
L 420.045113 132.416083 
L 422.842105 143.921384 
L 425.639098 156.868487 
L 428.43609 171.226136 
L 431.233083 186.910715 
L 434.030075 203.778115 
L 438.225564 230.813602 
L 448.015038 295.822041 
L 450.81203 312.71785 
L 453.609023 327.778225 
L 455.007519 334.414675 
L 456.406015 340.344148 
L 457.804511 345.483947 
L 459.203008 349.753201 
L 460.601504 353.074059 
L 462 355.37296 
L 463.398496 356.581983 
L 464.796992 356.640251 
L 466.195489 355.495387 
L 467.593985 353.104985 
L 468.992481 349.438087 
L 470.390977 344.476634 
L 471.789474 338.216857 
L 473.18797 330.67059 
L 474.586466 321.866459 
L 475.984962 311.850912 
L 477.383459 300.689059 
L 480.180451 275.283558 
L 482.977444 246.560056 
L 487.172932 199.990872 
L 491.368421 153.971004 
L 494.165414 126.595805 
L 495.56391 114.603893 
L 496.962406 104.047332 
L 498.360902 95.141355 
L 499.759398 88.084577 
L 501.157895 83.053956 
L 502.556391 80.199772 
L 503.954887 79.640719 
L 505.353383 81.459248 
L 506.75188 85.697299 
L 508.150376 92.352558 
L 509.548872 101.375396 
L 510.947368 112.666626 
L 512.345865 126.076216 
L 513.744361 141.403099 
L 515.142857 158.396178 
L 517.93985 196.14161 
L 523.533835 275.850313 
L 524.932331 294.104968 
L 526.330827 310.78035 
L 527.729323 325.440265 
L 529.12782 337.678749 
L 530.526316 347.132597 
L 531.924812 353.493667 
L 533.323308 356.520568 
L 534.721805 356.049309 
L 536.120301 352.002511 
L 537.518797 344.396743 
L 538.917293 333.347587 
L 540.315789 319.07208 
L 541.714286 301.888204 
L 543.112782 282.211194 
L 545.909774 237.479367 
L 550.105263 166.601535 
L 551.503759 144.826949 
L 552.902256 125.188308 
L 554.300752 108.364114 
L 555.699248 94.965919 
L 557.097744 85.513724 
L 558.496241 80.413013 
L 559.894737 79.934397 
L 561.293233 84.196881 
L 562.691729 93.155685 
L 564.090226 106.595449 
L 565.488722 124.129532 
L 566.887218 145.205913 
L 568.285714 169.119954 
L 571.082707 222.003966 
L 573.879699 274.999321 
L 575.278195 298.91753 
L 576.676692 319.761942 
L 578.075188 336.621064 
L 579.473684 348.71857 
L 580.87218 355.453014 
L 582.270677 356.432191 
L 583.669173 351.50017 
L 585.067669 340.75522 
L 586.466165 324.557115 
L 587.864662 303.522718 
L 589.263158 278.509209 
L 592.06015 220.988206 
L 594.857143 162.262915 
L 596.255639 135.955018 
L 597.654135 113.479216 
L 599.052632 96.013461 
L 600.451128 84.520436 
L 601.849624 79.688847 
L 603.24812 81.885908 
L 604.646617 91.12437 
L 606.045113 107.046853 
L 607.443609 128.929507 
L 608.842105 155.706056 
L 611.639098 218.249238 
L 614.43609 281.443362 
L 615.834586 308.813936 
L 617.233083 331.148787 
L 618.631579 347.067848 
L 620.030075 355.529935 
L 621.428571 355.908685 
L 622.827068 348.046912 
L 624.225564 332.284639 
L 625.62406 309.45739 
L 627.022556 280.86306 
L 629.819549 213.46158 
L 632.616541 146.580467 
L 634.015038 118.818788 
L 635.413534 97.461187 
L 636.81203 84.03271 
L 638.210526 79.562302 
L 639.609023 84.493767 
L 641.007519 98.633488 
L 642.406015 121.14073 
L 643.804511 150.563704 
L 646.601504 221.827502 
L 648 258.650439 
L 648 258.650439 
" clip-path="url(#p3bfecec70b)" style="fill: none; stroke: #2ecc71; stroke-width: 1.5; stroke-linecap: square"/>
   </g>
   <g id="line2d_30">
    <path d="M 90 196.067716 
L 91.398496 195.068089 
L 92.796992 195.734102 
L 94.195489 197.993539 
L 95.593985 201.663181 
L 96.992481 206.465542 
L 99.789474 218.026877 
L 102.586466 229.515073 
L 103.984962 234.268386 
L 105.383459 237.940975 
L 106.781955 240.311075 
L 108.180451 241.246723 
L 109.578947 240.710995 
L 110.977444 238.760894 
L 112.37594 235.540342 
L 113.774436 231.26802 
L 115.172932 226.221138 
L 119.368421 209.673529 
L 120.766917 204.781437 
L 122.165414 200.68635 
L 123.56391 197.608455 
L 124.962406 195.704218 
L 126.360902 195.060005 
L 127.759398 195.689971 
L 129.157895 197.538096 
L 130.556391 200.483997 
L 131.954887 204.351962 
L 133.353383 208.922533 
L 138.947368 229.076581 
L 140.345865 233.299989 
L 141.744361 236.758313 
L 143.142857 239.298088 
L 144.541353 240.814663 
L 145.93985 241.25519 
L 147.338346 240.618966 
L 148.736842 238.955254 
L 150.135338 236.358875 
L 151.533835 232.963916 
L 152.932331 228.935966 
L 155.729323 219.747811 
L 158.526316 210.406112 
L 159.924812 206.168178 
L 161.323308 202.448181 
L 162.721805 199.386362 
L 164.120301 197.091823 
L 165.518797 195.639529 
L 166.917293 195.068886 
L 168.315789 195.383824 
L 169.714286 196.554295 
L 171.112782 198.519013 
L 172.511278 201.189248 
L 173.909774 204.453441 
L 175.308271 208.182412 
L 178.105263 216.46325 
L 180.902256 224.857689 
L 182.300752 228.744552 
L 183.699248 232.257698 
L 185.097744 235.292024 
L 186.496241 237.761746 
L 187.894737 239.602225 
L 189.293233 240.770966 
L 190.691729 241.247827 
L 192.090226 241.03449 
L 193.488722 240.153272 
L 194.887218 238.645364 
L 196.285714 236.568594 
L 197.684211 233.994835 
L 199.082707 231.007157 
L 201.879699 224.160329 
L 207.473684 209.7009 
L 208.87218 206.463338 
L 210.270677 203.5342 
L 211.669173 200.975195 
L 213.067669 198.836495 
L 214.466165 197.156172 
L 215.864662 195.95998 
L 217.263158 195.261466 
L 218.661654 195.062383 
L 220.06015 195.353355 
L 221.458647 196.114768 
L 222.857143 197.317838 
L 224.255639 198.925816 
L 225.654135 200.895283 
L 227.052632 203.177503 
L 229.849624 208.466865 
L 234.045113 217.371738 
L 238.240602 226.136257 
L 241.037594 231.270915 
L 242.43609 233.513332 
L 243.834586 235.501311 
L 245.233083 237.213335 
L 246.631579 238.633379 
L 248.030075 239.750789 
L 249.428571 240.56008 
L 250.827068 241.060657 
L 252.225564 241.256463 
L 253.62406 241.155593 
L 255.022556 240.769853 
L 256.421053 240.11431 
L 257.819549 239.206812 
L 259.218045 238.067514 
L 260.616541 236.718402 
L 263.413534 233.485116 
L 266.210526 229.702568 
L 270.406015 223.429965 
L 276 214.900128 
L 278.796992 210.9082 
L 281.593985 207.255116 
L 284.390977 204.02395 
L 287.18797 201.270841 
L 289.984962 199.02701 
L 292.781955 197.301594 
L 294.180451 196.630923 
L 295.578947 196.084978 
L 296.977444 195.66021 
L 299.774436 195.15647 
L 302.571429 195.078648 
L 305.368421 195.378933 
L 308.165414 196.005616 
L 310.962406 196.905532 
L 313.759398 198.026067 
L 317.954887 200.010971 
L 323.548872 202.988272 
L 333.338346 208.297363 
L 338.932331 211.034331 
L 343.12782 212.844741 
L 347.323308 214.411747 
L 351.518797 215.716027 
L 355.714286 216.746598 
L 359.909774 217.498001 
L 364.105263 217.968035 
L 368.300752 218.156082 
L 372.496241 218.062058 
L 376.691729 217.685993 
L 380.887218 217.028241 
L 385.082707 216.090322 
L 389.278195 214.876383 
L 393.473684 213.395281 
L 397.669173 211.663214 
L 401.864662 209.706852 
L 407.458647 206.822057 
L 421.443609 199.316736 
L 425.639098 197.441443 
L 428.43609 196.424742 
L 431.233083 195.654789 
L 434.030075 195.184698 
L 436.827068 195.067184 
L 439.62406 195.35234 
L 441.022556 195.66021 
L 442.421053 196.084978 
L 443.819549 196.630923 
L 445.218045 197.301594 
L 446.616541 198.099702 
L 449.413534 200.084214 
L 452.210526 202.585133 
L 455.007519 205.582672 
L 457.804511 209.033463 
L 460.601504 212.868086 
L 464.796992 219.120037 
L 471.789474 229.702568 
L 474.586466 233.485116 
L 477.383459 236.718402 
L 478.781955 238.067514 
L 480.180451 239.206812 
L 481.578947 240.11431 
L 482.977444 240.769853 
L 484.37594 241.155593 
L 485.774436 241.256463 
L 487.172932 241.060657 
L 488.571429 240.56008 
L 489.969925 239.750789 
L 491.368421 238.633379 
L 492.766917 237.213335 
L 494.165414 235.501311 
L 495.56391 233.513332 
L 496.962406 231.270915 
L 499.759398 226.136257 
L 502.556391 220.376952 
L 508.150376 208.466865 
L 510.947368 203.177503 
L 512.345865 200.895283 
L 513.744361 198.925816 
L 515.142857 197.317838 
L 516.541353 196.114768 
L 517.93985 195.353355 
L 519.338346 195.062383 
L 520.736842 195.261466 
L 522.135338 195.95998 
L 523.533835 197.156172 
L 524.932331 198.836495 
L 526.330827 200.975195 
L 527.729323 203.5342 
L 529.12782 206.463338 
L 531.924812 213.174581 
L 538.917293 231.007157 
L 540.315789 233.994835 
L 541.714286 236.568594 
L 543.112782 238.645364 
L 544.511278 240.153272 
L 545.909774 241.03449 
L 547.308271 241.247827 
L 548.706767 240.770966 
L 550.105263 239.602225 
L 551.503759 237.761746 
L 552.902256 235.292024 
L 554.300752 232.257698 
L 555.699248 228.744552 
L 558.496241 220.718904 
L 562.691729 208.182412 
L 564.090226 204.453441 
L 565.488722 201.189248 
L 566.887218 198.519013 
L 568.285714 196.554295 
L 569.684211 195.383824 
L 571.082707 195.068886 
L 572.481203 195.639529 
L 573.879699 197.091823 
L 575.278195 199.386362 
L 576.676692 202.448181 
L 578.075188 206.168178 
L 580.87218 214.99514 
L 585.067669 228.935966 
L 586.466165 232.963916 
L 587.864662 236.358875 
L 589.263158 238.955254 
L 590.661654 240.618966 
L 592.06015 241.25519 
L 593.458647 240.814663 
L 594.857143 239.298088 
L 596.255639 236.758313 
L 597.654135 233.299989 
L 599.052632 229.076581 
L 601.849624 219.155822 
L 604.646617 208.922533 
L 606.045113 204.351962 
L 607.443609 200.483997 
L 608.842105 197.538096 
L 610.240602 195.689971 
L 611.639098 195.060005 
L 613.037594 195.704218 
L 614.43609 197.608455 
L 615.834586 200.68635 
L 617.233083 204.781437 
L 618.631579 209.673529 
L 624.225564 231.26802 
L 625.62406 235.540342 
L 627.022556 238.760894 
L 628.421053 240.710995 
L 629.819549 241.246723 
L 631.218045 240.311075 
L 632.616541 237.940975 
L 634.015038 234.268386 
L 635.413534 229.515073 
L 638.210526 218.026877 
L 641.007519 206.465542 
L 642.406015 201.663181 
L 643.804511 197.993539 
L 645.203008 195.734102 
L 646.601504 195.068089 
L 648 196.067716 
L 648 196.067716 
" clip-path="url(#p3bfecec70b)" style="fill: none; stroke-dasharray: 5.55,2.4; stroke-dashoffset: 0; stroke: #2980b9; stroke-width: 1.5"/>
   </g>
   <g id="patch_3">
    <path d="M 90 384.48 
L 90 51.84 
" style="fill: none; stroke: #000000; stroke-width: 0.8; stroke-linejoin: miter; stroke-linecap: square"/>
   </g>
   <g id="patch_4">
    <path d="M 648 384.48 
L 648 51.84 
" style="fill: none; stroke: #000000; stroke-width: 0.8; stroke-linejoin: miter; stroke-linecap: square"/>
   </g>
   <g id="patch_5">
    <path d="M 90 384.48 
L 648 384.48 
" style="fill: none; stroke: #000000; stroke-width: 0.8; stroke-linejoin: miter; stroke-linecap: square"/>
   </g>
   <g id="patch_6">
    <path d="M 90 51.84 
L 648 51.84 
" style="fill: none; stroke: #000000; stroke-width: 0.8; stroke-linejoin: miter; stroke-linecap: square"/>
   </g>
   <g id="text_17">
    <!-- Integral - Ejercicio 10 -->
    <g transform="translate(305.159063 45.84) scale(0.12 -0.12)">
     <defs>
      <path id="DejaVuSans-49" d="M 628 4666 
L 1259 4666 
L 1259 0 
L 628 0 
L 628 4666 
z
" transform="scale(0.015625)"/>
      <path id="DejaVuSans-6e" d="M 3513 2113 
L 3513 0 
L 2938 0 
L 2938 2094 
Q 2938 2591 2744 2837 
Q 2550 3084 2163 3084 
Q 1697 3084 1428 2787 
Q 1159 2491 1159 1978 
L 1159 0 
L 581 0 
L 581 3500 
L 1159 3500 
L 1159 2956 
Q 1366 3272 1645 3428 
Q 1925 3584 2291 3584 
Q 2894 3584 3203 3211 
Q 3513 2838 3513 2113 
z
" transform="scale(0.015625)"/>
      <path id="DejaVuSans-74" d="M 1172 4494 
L 1172 3500 
L 2356 3500 
L 2356 3053 
L 1172 3053 
L 1172 1153 
Q 1172 725 1289 603 
Q 1406 481 1766 481 
L 2356 481 
L 2356 0 
L 1766 0 
Q 1100 0 847 248 
Q 594 497 594 1153 
L 594 3053 
L 172 3053 
L 172 3500 
L 594 3500 
L 594 4494 
L 1172 4494 
z
" transform="scale(0.015625)"/>
      <path id="DejaVuSans-65" d="M 3597 1894 
L 3597 1613 
L 953 1613 
Q 991 1019 1311 708 
Q 1631 397 2203 397 
Q 2534 397 2845 478 
Q 3156 559 3463 722 
L 3463 178 
Q 3153 47 2828 -22 
Q 2503 -91 2169 -91 
Q 1331 -91 842 396 
Q 353 884 353 1716 
Q 353 2575 817 3079 
Q 1281 3584 2069 3584 
Q 2775 3584 3186 3129 
Q 3597 2675 3597 1894 
z
M 3022 2063 
Q 3016 2534 2758 2815 
Q 2500 3097 2075 3097 
Q 1594 3097 1305 2825 
Q 1016 2553 972 2059 
L 3022 2063 
z
" transform="scale(0.015625)"/>
      <path id="DejaVuSans-67" d="M 2906 1791 
Q 2906 2416 2648 2759 
Q 2391 3103 1925 3103 
Q 1463 3103 1205 2759 
Q 947 2416 947 1791 
Q 947 1169 1205 825 
Q 1463 481 1925 481 
Q 2391 481 2648 825 
Q 2906 1169 2906 1791 
z
M 3481 434 
Q 3481 -459 3084 -895 
Q 2688 -1331 1869 -1331 
Q 1566 -1331 1297 -1286 
Q 1028 -1241 775 -1147 
L 775 -588 
Q 1028 -725 1275 -790 
Q 1522 -856 1778 -856 
Q 2344 -856 2625 -561 
Q 2906 -266 2906 331 
L 2906 616 
Q 2728 306 2450 153 
Q 2172 0 1784 0 
Q 1141 0 747 490 
Q 353 981 353 1791 
Q 353 2603 747 3093 
Q 1141 3584 1784 3584 
Q 2172 3584 2450 3431 
Q 2728 3278 2906 2969 
L 2906 3500 
L 3481 3500 
L 3481 434 
z
" transform="scale(0.015625)"/>
      <path id="DejaVuSans-72" d="M 2631 2963 
Q 2534 3019 2420 3045 
Q 2306 3072 2169 3072 
Q 1681 3072 1420 2755 
Q 1159 2438 1159 1844 
L 1159 0 
L 581 0 
L 581 3500 
L 1159 3500 
L 1159 2956 
Q 1341 3275 1631 3429 
Q 1922 3584 2338 3584 
Q 2397 3584 2469 3576 
Q 2541 3569 2628 3553 
L 2631 2963 
z
" transform="scale(0.015625)"/>
      <path id="DejaVuSans-61" d="M 2194 1759 
Q 1497 1759 1228 1600 
Q 959 1441 959 1056 
Q 959 750 1161 570 
Q 1363 391 1709 391 
Q 2188 391 2477 730 
Q 2766 1069 2766 1631 
L 2766 1759 
L 2194 1759 
z
M 3341 1997 
L 3341 0 
L 2766 0 
L 2766 531 
Q 2569 213 2275 61 
Q 1981 -91 1556 -91 
Q 1019 -91 701 211 
Q 384 513 384 1019 
Q 384 1609 779 1909 
Q 1175 2209 1959 2209 
L 2766 2209 
L 2766 2266 
Q 2766 2663 2505 2880 
Q 2244 3097 1772 3097 
Q 1472 3097 1187 3025 
Q 903 2953 641 2809 
L 641 3341 
Q 956 3463 1253 3523 
Q 1550 3584 1831 3584 
Q 2591 3584 2966 3190 
Q 3341 2797 3341 1997 
z
" transform="scale(0.015625)"/>
      <path id="DejaVuSans-6c" d="M 603 4863 
L 1178 4863 
L 1178 0 
L 603 0 
L 603 4863 
z
" transform="scale(0.015625)"/>
      <path id="DejaVuSans-20" transform="scale(0.015625)"/>
      <path id="DejaVuSans-2d" d="M 313 2009 
L 1997 2009 
L 1997 1497 
L 313 1497 
L 313 2009 
z
" transform="scale(0.015625)"/>
      <path id="DejaVuSans-45" d="M 628 4666 
L 3578 4666 
L 3578 4134 
L 1259 4134 
L 1259 2753 
L 3481 2753 
L 3481 2222 
L 1259 2222 
L 1259 531 
L 3634 531 
L 3634 0 
L 628 0 
L 628 4666 
z
" transform="scale(0.015625)"/>
      <path id="DejaVuSans-6a" d="M 603 3500 
L 1178 3500 
L 1178 -63 
Q 1178 -731 923 -1031 
Q 669 -1331 103 -1331 
L -116 -1331 
L -116 -844 
L 38 -844 
Q 366 -844 484 -692 
Q 603 -541 603 -63 
L 603 3500 
z
M 603 4863 
L 1178 4863 
L 1178 4134 
L 603 4134 
L 603 4863 
z
" transform="scale(0.015625)"/>
      <path id="DejaVuSans-63" d="M 3122 3366 
L 3122 2828 
Q 2878 2963 2633 3030 
Q 2388 3097 2138 3097 
Q 1578 3097 1268 2742 
Q 959 2388 959 1747 
Q 959 1106 1268 751 
Q 1578 397 2138 397 
Q 2388 397 2633 464 
Q 2878 531 3122 666 
L 3122 134 
Q 2881 22 2623 -34 
Q 2366 -91 2075 -91 
Q 1284 -91 818 406 
Q 353 903 353 1747 
Q 353 2603 823 3093 
Q 1294 3584 2113 3584 
Q 2378 3584 2631 3529 
Q 2884 3475 3122 3366 
z
" transform="scale(0.015625)"/>
      <path id="DejaVuSans-69" d="M 603 3500 
L 1178 3500 
L 1178 0 
L 603 0 
L 603 3500 
z
M 603 4863 
L 1178 4863 
L 1178 4134 
L 603 4134 
L 603 4863 
z
" transform="scale(0.015625)"/>
      <path id="DejaVuSans-6f" d="M 1959 3097 
Q 1497 3097 1228 2736 
Q 959 2375 959 1747 
Q 959 1119 1226 758 
Q 1494 397 1959 397 
Q 2419 397 2687 759 
Q 2956 1122 2956 1747 
Q 2956 2369 2687 2733 
Q 2419 3097 1959 3097 
z
M 1959 3584 
Q 2709 3584 3137 3096 
Q 3566 2609 3566 1747 
Q 3566 888 3137 398 
Q 2709 -91 1959 -91 
Q 1206 -91 779 398 
Q 353 888 353 1747 
Q 353 2609 779 3096 
Q 1206 3584 1959 3584 
z
" transform="scale(0.015625)"/>
     </defs>
     <use xlink:href="#DejaVuSans-49"/>
     <use xlink:href="#DejaVuSans-6e" x="29.492188"/>
     <use xlink:href="#DejaVuSans-74" x="92.871094"/>
     <use xlink:href="#DejaVuSans-65" x="132.080078"/>
     <use xlink:href="#DejaVuSans-67" x="193.603516"/>
     <use xlink:href="#DejaVuSans-72" x="257.080078"/>
     <use xlink:href="#DejaVuSans-61" x="298.193359"/>
     <use xlink:href="#DejaVuSans-6c" x="359.472656"/>
     <use xlink:href="#DejaVuSans-20" x="387.255859"/>
     <use xlink:href="#DejaVuSans-2d" x="419.042969"/>
     <use xlink:href="#DejaVuSans-20" x="455.126953"/>
     <use xlink:href="#DejaVuSans-45" x="486.914062"/>
     <use xlink:href="#DejaVuSans-6a" x="550.097656"/>
     <use xlink:href="#DejaVuSans-65" x="577.880859"/>
     <use xlink:href="#DejaVuSans-72" x="639.404297"/>
     <use xlink:href="#DejaVuSans-63" x="678.267578"/>
     <use xlink:href="#DejaVuSans-69" x="733.248047"/>
     <use xlink:href="#DejaVuSans-63" x="761.03125"/>
     <use xlink:href="#DejaVuSans-69" x="816.011719"/>
     <use xlink:href="#DejaVuSans-6f" x="843.794922"/>
     <use xlink:href="#DejaVuSans-20" x="904.976562"/>
     <use xlink:href="#DejaVuSans-31" x="936.763672"/>
     <use xlink:href="#DejaVuSans-30" x="1000.386719"/>
    </g>
   </g>
   <g id="legend_1">
    <g id="patch_7">
     <path d="M 322.3 379.48 
L 415.7 379.48 
Q 417.7 379.48 417.7 377.48 
L 417.7 349.101875 
Q 417.7 347.101875 415.7 347.101875 
L 322.3 347.101875 
Q 320.3 347.101875 320.3 349.101875 
L 320.3 377.48 
Q 320.3 379.48 322.3 379.48 
z
" style="fill: #ffffff; opacity: 0.8; stroke: #cccccc; stroke-linejoin: miter"/>
    </g>
    <g id="line2d_31">
     <path d="M 324.3 355.200312 
L 334.3 355.200312 
L 344.3 355.200312 
" style="fill: none; stroke: #2ecc71; stroke-width: 1.5; stroke-linecap: square"/>
    </g>
    <g id="text_18">
     <!-- Función $f(x)$ -->
     <g transform="translate(352.3 358.700312) scale(0.1 -0.1)">
      <defs>
       <path id="DejaVuSans-46" d="M 628 4666 
L 3309 4666 
L 3309 4134 
L 1259 4134 
L 1259 2759 
L 3109 2759 
L 3109 2228 
L 1259 2228 
L 1259 0 
L 628 0 
L 628 4666 
z
" transform="scale(0.015625)"/>
       <path id="DejaVuSans-75" d="M 544 1381 
L 544 3500 
L 1119 3500 
L 1119 1403 
Q 1119 906 1312 657 
Q 1506 409 1894 409 
Q 2359 409 2629 706 
Q 2900 1003 2900 1516 
L 2900 3500 
L 3475 3500 
L 3475 0 
L 2900 0 
L 2900 538 
Q 2691 219 2414 64 
Q 2138 -91 1772 -91 
Q 1169 -91 856 284 
Q 544 659 544 1381 
z
M 1991 3584 
L 1991 3584 
z
" transform="scale(0.015625)"/>
       <path id="DejaVuSans-f3" d="M 1959 3097 
Q 1497 3097 1228 2736 
Q 959 2375 959 1747 
Q 959 1119 1226 758 
Q 1494 397 1959 397 
Q 2419 397 2687 759 
Q 2956 1122 2956 1747 
Q 2956 2369 2687 2733 
Q 2419 3097 1959 3097 
z
M 1959 3584 
Q 2709 3584 3137 3096 
Q 3566 2609 3566 1747 
Q 3566 888 3137 398 
Q 2709 -91 1959 -91 
Q 1206 -91 779 398 
Q 353 888 353 1747 
Q 353 2609 779 3096 
Q 1206 3584 1959 3584 
z
M 2394 5119 
L 3016 5119 
L 1998 3944 
L 1519 3944 
L 2394 5119 
z
" transform="scale(0.015625)"/>
       <path id="DejaVuSans-Oblique-66" d="M 3059 4863 
L 2969 4384 
L 2419 4384 
Q 2106 4384 1964 4261 
Q 1822 4138 1753 3809 
L 1691 3500 
L 2638 3500 
L 2553 3053 
L 1606 3053 
L 1013 0 
L 434 0 
L 1031 3053 
L 481 3053 
L 563 3500 
L 1113 3500 
L 1159 3744 
Q 1278 4363 1576 4613 
Q 1875 4863 2516 4863 
L 3059 4863 
z
" transform="scale(0.015625)"/>
       <path id="DejaVuSans-28" d="M 1984 4856 
Q 1566 4138 1362 3434 
Q 1159 2731 1159 2009 
Q 1159 1288 1364 580 
Q 1569 -128 1984 -844 
L 1484 -844 
Q 1016 -109 783 600 
Q 550 1309 550 2009 
Q 550 2706 781 3412 
Q 1013 4119 1484 4856 
L 1984 4856 
z
" transform="scale(0.015625)"/>
       <path id="DejaVuSans-29" d="M 513 4856 
L 1013 4856 
Q 1481 4119 1714 3412 
Q 1947 2706 1947 2009 
Q 1947 1309 1714 600 
Q 1481 -109 1013 -844 
L 513 -844 
Q 928 -128 1133 580 
Q 1338 1288 1338 2009 
Q 1338 2731 1133 3434 
Q 928 4138 513 4856 
z
" transform="scale(0.015625)"/>
      </defs>
      <use xlink:href="#DejaVuSans-46" transform="translate(0 0.015625)"/>
      <use xlink:href="#DejaVuSans-75" transform="translate(57.519531 0.015625)"/>
      <use xlink:href="#DejaVuSans-6e" transform="translate(120.898438 0.015625)"/>
      <use xlink:href="#DejaVuSans-63" transform="translate(184.277344 0.015625)"/>
      <use xlink:href="#DejaVuSans-69" transform="translate(239.257812 0.015625)"/>
      <use xlink:href="#DejaVuSans-f3" transform="translate(267.041016 0.015625)"/>
      <use xlink:href="#DejaVuSans-6e" transform="translate(328.222656 0.015625)"/>
      <use xlink:href="#DejaVuSans-20" transform="translate(391.601562 0.015625)"/>
      <use xlink:href="#DejaVuSans-Oblique-66" transform="translate(423.388672 0.015625)"/>
      <use xlink:href="#DejaVuSans-28" transform="translate(458.59375 0.015625)"/>
      <use xlink:href="#DejaVuSans-Oblique-78" transform="translate(497.607422 0.015625)"/>
      <use xlink:href="#DejaVuSans-29" transform="translate(556.787109 0.015625)"/>
     </g>
    </g>
    <g id="line2d_32">
     <path d="M 324.3 369.88 
L 334.3 369.88 
L 344.3 369.88 
" style="fill: none; stroke-dasharray: 5.55,2.4; stroke-dashoffset: 0; stroke: #2980b9; stroke-width: 1.5"/>
    </g>
    <g id="text_19">
     <!-- Integral $F(x)$ -->
     <g transform="translate(352.3 373.38) scale(0.1 -0.1)">
      <defs>
       <path id="DejaVuSans-Oblique-46" d="M 1081 4666 
L 3756 4666 
L 3653 4134 
L 1606 4134 
L 1338 2759 
L 3188 2759 
L 3084 2228 
L 1234 2228 
L 800 0 
L 172 0 
L 1081 4666 
z
" transform="scale(0.015625)"/>
      </defs>
      <use xlink:href="#DejaVuSans-49" transform="translate(0 0.015625)"/>
      <use xlink:href="#DejaVuSans-6e" transform="translate(29.492188 0.015625)"/>
      <use xlink:href="#DejaVuSans-74" transform="translate(92.871094 0.015625)"/>
      <use xlink:href="#DejaVuSans-65" transform="translate(132.080078 0.015625)"/>
      <use xlink:href="#DejaVuSans-67" transform="translate(193.603516 0.015625)"/>
      <use xlink:href="#DejaVuSans-72" transform="translate(257.080078 0.015625)"/>
      <use xlink:href="#DejaVuSans-61" transform="translate(298.193359 0.015625)"/>
      <use xlink:href="#DejaVuSans-6c" transform="translate(359.472656 0.015625)"/>
      <use xlink:href="#DejaVuSans-20" transform="translate(387.255859 0.015625)"/>
      <use xlink:href="#DejaVuSans-Oblique-46" transform="translate(419.042969 0.015625)"/>
      <use xlink:href="#DejaVuSans-28" transform="translate(476.5625 0.015625)"/>
      <use xlink:href="#DejaVuSans-Oblique-78" transform="translate(515.576172 0.015625)"/>
      <use xlink:href="#DejaVuSans-29" transform="translate(574.755859 0.015625)"/>
     </g>
    </g>
   </g>
  </g>
  <g id="text_20">
   <!-- Cursland -->
   <g transform="translate(333.460312 17.758125) scale(0.12 -0.12)">
    <defs>
     <path id="DejaVuSans-43" d="M 4122 4306 
L 4122 3641 
Q 3803 3938 3442 4084 
Q 3081 4231 2675 4231 
Q 1875 4231 1450 3742 
Q 1025 3253 1025 2328 
Q 1025 1406 1450 917 
Q 1875 428 2675 428 
Q 3081 428 3442 575 
Q 3803 722 4122 1019 
L 4122 359 
Q 3791 134 3420 21 
Q 3050 -91 2638 -91 
Q 1578 -91 968 557 
Q 359 1206 359 2328 
Q 359 3453 968 4101 
Q 1578 4750 2638 4750 
Q 3056 4750 3426 4639 
Q 3797 4528 4122 4306 
z
" transform="scale(0.015625)"/>
     <path id="DejaVuSans-73" d="M 2834 3397 
L 2834 2853 
Q 2591 2978 2328 3040 
Q 2066 3103 1784 3103 
Q 1356 3103 1142 2972 
Q 928 2841 928 2578 
Q 928 2378 1081 2264 
Q 1234 2150 1697 2047 
L 1894 2003 
Q 2506 1872 2764 1633 
Q 3022 1394 3022 966 
Q 3022 478 2636 193 
Q 2250 -91 1575 -91 
Q 1294 -91 989 -36 
Q 684 19 347 128 
L 347 722 
Q 666 556 975 473 
Q 1284 391 1588 391 
Q 1994 391 2212 530 
Q 2431 669 2431 922 
Q 2431 1156 2273 1281 
Q 2116 1406 1581 1522 
L 1381 1569 
Q 847 1681 609 1914 
Q 372 2147 372 2553 
Q 372 3047 722 3315 
Q 1072 3584 1716 3584 
Q 2034 3584 2315 3537 
Q 2597 3491 2834 3397 
z
" transform="scale(0.015625)"/>
     <path id="DejaVuSans-64" d="M 2906 2969 
L 2906 4863 
L 3481 4863 
L 3481 0 
L 2906 0 
L 2906 525 
Q 2725 213 2448 61 
Q 2172 -91 1784 -91 
Q 1150 -91 751 415 
Q 353 922 353 1747 
Q 353 2572 751 3078 
Q 1150 3584 1784 3584 
Q 2172 3584 2448 3432 
Q 2725 3281 2906 2969 
z
M 947 1747 
Q 947 1113 1208 752 
Q 1469 391 1925 391 
Q 2381 391 2643 752 
Q 2906 1113 2906 1747 
Q 2906 2381 2643 2742 
Q 2381 3103 1925 3103 
Q 1469 3103 1208 2742 
Q 947 2381 947 1747 
z
" transform="scale(0.015625)"/>
    </defs>
    <use xlink:href="#DejaVuSans-43"/>
    <use xlink:href="#DejaVuSans-75" x="69.824219"/>
    <use xlink:href="#DejaVuSans-72" x="133.203125"/>
    <use xlink:href="#DejaVuSans-73" x="174.316406"/>
    <use xlink:href="#DejaVuSans-6c" x="226.416016"/>
    <use xlink:href="#DejaVuSans-61" x="254.199219"/>
    <use xlink:href="#DejaVuSans-6e" x="315.478516"/>
    <use xlink:href="#DejaVuSans-64" x="378.857422"/>
   </g>
  </g>
 </g>
 <defs>
  <clipPath id="p3bfecec70b">
   <rect x="90" y="51.84" width="558" height="332.64"/>
  </clipPath>
 </defs>
</svg>
